<svg width="251" height="448" viewBox="0 0 251 448" fill="none" xmlns="http://www.w3.org/2000/svg">
<g clip-path="url(#clip0_3_99)">
<path d="M99.1085 209.294C98.9681 186.629 99.3191 160.555 97.8451 137.995C113.287 144.179 129.571 141.72 129.501 121.409C129.501 115.611 124.166 57.9459 120.973 56.1186C120.306 55.7321 119.007 55.5564 117.358 55.5564C118.586 51.5153 114.831 31.2746 107.988 25.7928C107.952 25.7576 102.793 21.9625 98.8628 20.0649C98.7575 19.9947 98.6523 19.9595 98.547 19.9244L99.5647 11.5611C99.67 10.8583 99.1436 10.1906 98.4066 10.0852C97.7047 9.97977 97.0379 10.5069 96.9326 11.2448L95.9499 19.1162C94.8971 18.9756 94.125 19.327 93.5635 20.2758C93.002 21.2246 94.2654 22.4193 95.4586 23.2627L95.4235 23.6844C94.0197 23.087 93.1423 23.4384 92.7563 24.2466C91.3876 22.9464 90.0891 22.2436 88.9309 23.1221C85.4565 24.5277 92.3 32.7856 91.7034 39.7434C91.6332 40.6921 92.1246 42.4491 92.8967 44.417L91.7385 53.9048C91.6332 54.6076 92.1597 55.2752 92.8967 55.3807C93.5986 55.4861 94.2654 54.959 94.3707 54.221L95.0375 48.9149C96.6869 52.0424 98.6172 54.7833 99.7753 55.1347V54.9941C99.9157 59.0704 99.9508 59.2109 102.162 58.4379H102.197C99.4594 59.4218 97.4941 60.5462 97.2134 61.7059C97.1783 61.8113 97.2836 70.5963 97.2485 76.4647C97.2485 76.7458 97.2485 77.2026 97.2485 77.8351C97.2134 79.6976 97.2134 81.068 97.1432 81.5248L91.5981 89.5016C89.2819 88.342 86.1233 87.0418 83.5263 85.9876C82.6138 85.4605 81.1398 84.828 79.3149 84.1252C73.9804 82.1222 65.6629 79.5921 59.7669 77.5892C59.6967 77.554 58.7492 77.554 57.2401 77.554C56.2223 72.4939 55.3098 67.7851 55.3098 66.9417C55.3098 66.5903 69.6988 66.4498 69.5233 57.5242C69.2426 41.8518 64.3293 30.0447 58.2227 23.5438C65.7331 21.2246 67.3825 10.7528 59.6616 6.04408C56.7838 4.28708 52.6426 4.77904 48.8874 6.07922L52.046 2.88148C48.8523 2.67064 45.2726 5.76296 43.0266 8.82014C39.2363 10.6826 32.3226 12.1584 27.2338 15.9887C22.6363 19.4324 21.8993 26.355 23.4786 31.6963C23.619 32.2234 23.8646 33.1019 24.1805 34.2264C21.2676 35.9131 21.3027 37.5647 22.8469 41.4652C24.8473 46.5957 27.4443 54.7481 28.2866 56.0483C28.3217 56.1537 28.3919 56.2592 28.4972 56.3997C27.1636 55.3455 25.479 54.221 24.8824 54.8536C22.4608 57.3134 24.3911 60.7571 26.8828 64.9388C28.778 68.1365 31.1995 71.3342 30.9539 77.8351C17.4422 82.4736 3.29893 89.853 1.26341 95.2997C-1.15815 104.506 6.98391 218.009 6.98391 218.009C7.29977 218.009 7.65072 218.009 8.10695 218.009C9.72133 238.144 11.9323 278.028 14.1784 316.295C17.0211 364.613 19.8989 410.26 21.7589 410.014C22.4257 409.943 23.8997 409.908 25.83 409.908C26.0054 412.122 26.216 415.039 26.4266 417.569C24.8473 417.534 23.5839 417.499 22.8469 417.499C22.4257 419.993 22.6714 425.756 22.3907 430.325C21.3027 447.368 21.4431 446.524 22.2503 446.243C23.3733 445.892 29.1289 445.997 30.6731 445.927C34.8845 445.681 34.1124 436.65 38.7099 446.102C39.3767 447.508 78.3322 449.019 81.9821 447.473C83.2104 446.981 83.8421 446.419 84.0878 445.821C96.8273 445.892 120.13 444.802 123.008 443.502C123.008 443.502 121.815 436.369 113.708 436.052C98.0205 435.42 86.4392 430.043 81.0345 413.493L81.3153 414.406C80.6134 414.793 79.1745 415.074 77.3145 415.285C77.5601 412.86 77.876 409.943 78.1216 407.343L81.4206 407.167L93.3529 254.976L99.1085 209.294ZM54.0815 283.685C54.1166 283.404 54.1166 283.193 54.1517 282.983C54.1517 282.947 54.1517 282.947 54.1517 282.912C54.1517 282.807 54.1868 282.701 54.1868 282.631C54.1868 282.561 54.2219 282.491 54.2219 282.42V282.385C54.2219 282.315 54.2219 282.245 54.257 282.209C54.257 282.174 54.257 282.104 54.2921 282.069V282.034C54.2921 281.999 54.2921 281.964 54.3272 281.964C54.3272 281.964 54.3272 281.928 54.3272 281.893V281.858C54.3272 281.823 54.3272 281.823 54.3272 281.788C54.3272 281.788 54.3272 281.753 54.3272 281.718C54.3272 281.682 54.3272 281.647 54.3623 281.612C54.3623 281.577 54.3623 281.577 54.3623 281.542C54.3623 281.507 54.3623 281.472 54.3974 281.436C54.3974 281.401 54.3974 281.366 54.4325 281.331C54.4325 281.296 54.4325 281.261 54.4676 281.19C54.4676 281.155 54.4676 281.12 54.5027 281.085C54.5027 281.05 54.5377 280.98 54.5377 280.909C54.5377 280.874 54.5377 280.839 54.5728 280.804C54.5728 280.734 54.6079 280.698 54.6079 280.628C54.6079 280.593 54.643 280.523 54.643 280.488C54.643 280.417 54.6781 280.347 54.6781 280.277C54.6781 280.242 54.6781 280.171 54.7132 280.136C54.7132 280.066 54.7483 279.961 54.7483 279.89C54.7483 279.82 54.7834 279.785 54.7834 279.715C54.7834 279.609 54.8185 279.504 54.8185 279.433C54.8185 279.398 54.8185 279.363 54.8536 279.328C54.8887 279.047 54.9589 278.731 55.0291 278.379C55.0291 278.309 55.0642 278.239 55.0642 278.204C55.0993 278.098 55.0993 277.993 55.1344 277.887C55.1344 277.817 55.1695 277.747 55.1695 277.676C55.2046 277.571 55.2046 277.466 55.2396 277.325C55.2396 277.255 55.2747 277.22 55.2747 277.149C55.3098 277.009 55.3098 276.868 55.3449 276.728C55.3449 276.693 55.3449 276.622 55.38 276.587C55.4151 276.447 55.4151 276.306 55.4502 276.165C55.4502 276.095 55.4853 275.99 55.4853 275.919C55.5204 275.814 55.5204 275.673 55.5555 275.568C55.5555 275.498 55.5906 275.392 55.5906 275.322C55.6257 275.181 55.6257 275.076 55.6608 274.935C55.6608 274.865 55.6959 274.76 55.6959 274.69C55.731 274.549 55.731 274.444 55.7661 274.303C55.7661 274.233 55.8012 274.127 55.8012 274.057C55.8363 273.916 55.8363 273.741 55.8714 273.6C55.8714 273.53 55.9065 273.495 55.9065 273.424C55.9416 273.284 55.9416 273.178 55.9766 273.038C56.0819 272.37 56.1872 271.703 56.3276 271.035C56.3627 270.894 56.3627 270.754 56.3978 270.613C56.3978 270.543 56.4329 270.473 56.4329 270.402C56.468 270.262 56.468 270.121 56.5031 269.946C56.5382 269.805 56.5382 269.7 56.5733 269.559C56.6084 269.418 56.6084 269.313 56.6434 269.173C56.6785 268.997 56.6785 268.856 56.7136 268.681C56.7136 268.645 56.7136 268.575 56.7487 268.54C56.7838 268.364 56.8189 268.224 56.8189 268.048C56.8189 267.943 56.854 267.837 56.854 267.732C56.8891 267.591 56.8891 267.486 56.9242 267.345C56.9593 267.205 56.9593 267.099 56.9944 266.959C57.0295 266.818 57.0295 266.642 57.0646 266.502C57.0646 266.467 57.0646 266.467 57.0646 266.432C57.0997 266.221 57.1348 266.045 57.1699 265.834C57.205 265.694 57.205 265.553 57.2401 265.413C57.2401 265.342 57.2752 265.237 57.2752 265.167C57.3103 265.026 57.3103 264.921 57.3454 264.78C57.3454 264.675 57.3804 264.569 57.3804 264.464L54.1517 284.107C54.1517 283.966 54.1868 283.826 54.1868 283.685C54.0464 283.72 54.0464 283.72 54.0815 283.685ZM56.6084 430.149C52.9234 427.232 50.186 423.016 48.5365 415.671L48.7471 416.585C47.7995 417.042 45.3077 417.323 42.1843 417.428C42.2545 415.039 42.3598 412.087 42.4299 409.451C45.4481 409.241 47.5538 408.854 47.624 408.186C47.9048 405.34 50.0456 359.307 51.8354 323.64C51.8705 322.726 51.9407 321.847 51.9758 320.934C51.9758 320.793 51.9758 320.653 52.0109 320.512C52.046 320.126 52.046 319.774 52.0811 319.388C52.0811 319.212 52.0811 319.036 52.1162 318.896C52.1162 318.579 52.1513 318.263 52.1513 317.947C52.1513 317.841 52.1513 317.701 52.1864 317.595C52.2215 317.174 52.2215 316.752 52.2566 316.33C52.2566 316.295 52.2566 316.295 52.2566 316.26C52.2917 315.803 52.2917 315.382 52.3268 314.925C52.3268 314.89 52.3268 314.855 52.3268 314.819C52.3619 314.468 52.3619 314.117 52.3969 313.73C52.3969 313.59 52.3969 313.414 52.432 313.273C52.4671 312.922 52.4671 312.57 52.5022 312.219C52.5022 312.114 52.5022 312.043 52.5022 311.938C52.5373 311.551 52.5373 311.2 52.5724 310.813C52.5724 310.778 52.5724 310.708 52.5724 310.673C52.6075 310.251 52.6075 309.83 52.6426 309.408C52.6426 309.373 52.6426 309.338 52.6426 309.302C52.6777 308.916 52.6777 308.494 52.7128 308.108C52.7128 308.073 52.7128 308.037 52.7128 308.002C52.7479 307.159 52.783 306.351 52.8532 305.542C52.8532 305.472 52.8532 305.437 52.8532 305.367C52.9234 304.137 52.9936 302.942 53.0287 301.782L55.6257 408.362L61.4164 408.046C61.4164 410.295 61.4515 413.211 61.4515 415.706C59.2756 415.742 57.4857 415.777 56.3627 415.847C57.7665 420.099 56.6435 425.546 56.6084 430.149ZM117.323 55.5564C116.656 55.5564 115.954 55.5915 115.217 55.6618C116.235 55.5212 117.007 55.4861 117.323 55.5564ZM91.4227 89.5016L89.0011 92.9453C87.5271 90.099 85.8075 87.7798 83.8421 86.1633C83.7719 86.1282 83.7018 86.0579 83.5965 86.0228L91.4227 89.5016Z" fill="white"/>
<path d="M82.7194 3.75993C84.5794 5.51693 86.5448 6.60627 88.2995 7.69561L80.2277 1.86237C81.3156 2.70573 82.6141 3.65451 82.7194 3.75993Z" fill="white"/>
<path d="M88.2994 7.69568L90.8263 9.52296C90.0893 8.8553 89.2119 8.29306 88.2994 7.69568Z" fill="white"/>
<path d="M80.2275 1.86244C79.3853 1.22992 78.6483 0.70282 78.6132 0.70282L80.2275 1.86244Z" fill="white"/>
<path d="M78.5428 11.9476L75.1737 11.1042C76.0511 11.4205 77.2443 11.7016 78.5428 11.9476Z" fill="white"/>
<path d="M78.543 11.9476L86.3692 13.8803C84.7197 13.0721 81.3506 12.5098 78.543 11.9476Z" fill="white"/>
<path d="M79.2449 19.2567L82.7895 18.9053C81.6313 18.9053 80.4381 19.081 79.2449 19.2567Z" fill="white"/>
<path d="M79.2449 19.2567L76.0863 19.573C77.069 19.5378 78.1569 19.3973 79.2449 19.2567Z" fill="white"/>
<path d="M173.37 377.579C166.527 387.454 147.084 410.47 151.857 428.216C152.138 429.235 152.313 430.219 152.489 431.133C142.978 430.395 135.853 420.134 141.679 397.117C143.364 390.511 153.647 378.915 152.769 378.563C142.837 374.803 130.73 394.271 129.396 400.28C127.817 407.448 121.254 432.433 145.189 442.87C151.05 445.435 158.7 445.154 162.42 444.029C165.123 444.381 168.667 444.591 173.3 444.627C190.532 444.802 227.592 443.853 239.735 444.451C242.507 444.591 248.158 439.356 242.332 432.995C240.121 430.571 237.699 429.2 237.699 429.13C237.699 425.546 237.313 422.769 237.173 416.198C236.927 405.375 237.91 333.338 237.629 332.143C238.542 331.616 239.068 331.124 239.208 330.668C239.735 328.629 238.928 323.183 238.261 323.604C237.98 323.78 237.664 323.956 237.313 324.096C238.12 322.55 237.559 318.087 240.718 316.963C247.175 314.679 253.282 303.223 248.579 299.604C238.191 291.592 237.91 297.741 235.839 284.95C234.576 276.974 236.331 277.149 232.435 268.997C229.838 263.55 223.24 282.596 222.679 285.196C222.328 286.813 213.835 286.813 211.869 286.813C210.711 282.28 207.974 273.635 207.307 268.962C206.395 262.32 195.971 275.673 195.48 291.486C195.269 298.725 196.568 320.934 196.041 322.339C196.077 322.374 196.112 322.41 196.147 322.445C196.077 322.41 196.006 322.374 195.936 322.339C193.83 321.461 195.515 328.629 194.357 330.808C194.603 330.878 195.024 331.019 195.55 331.195C196.006 341.842 189.9 353.754 173.37 377.579ZM222.293 335.376C223.767 335.306 225.135 335.165 226.434 335.025C225.065 335.201 223.661 335.306 222.293 335.376Z" fill="white"/>
<path d="M26.2513 416.444C26.2864 416.444 26.3215 416.444 26.3566 416.444C26.5671 416.444 26.7777 416.444 27.0234 416.444C26.883 414.441 26.7075 412.298 26.5671 410.506C26.3215 410.506 26.0758 410.506 25.8301 410.506C25.5845 410.506 25.3388 410.506 25.0931 410.506C25.1984 412.017 25.3388 413.809 25.4792 415.531C25.5143 415.812 25.5143 416.128 25.5494 416.409C25.7599 416.409 26.0056 416.409 26.2513 416.444Z" fill="#1E1E1E"/>
<path d="M42.9564 416.409C42.9564 415.987 42.9915 415.531 42.9915 415.109C43.0617 413.176 43.0968 411.56 43.1319 410.154C42.8862 410.189 42.6406 410.189 42.3949 410.225C42.1492 410.225 41.9036 410.26 41.6579 410.26C41.6228 411.946 41.5526 413.668 41.5175 415.039C41.5175 415.531 41.4824 415.987 41.4824 416.444C41.7281 416.444 41.9738 416.444 42.2194 416.409C42.4651 416.409 42.7108 416.409 42.9564 416.409Z" fill="#1E1E1E"/>
<path d="M60.574 407.413C60.6442 406.605 60.6793 405.305 60.7144 403.653C61.0302 392.9 61.5567 365.737 61.4514 338.785C61.2759 300.728 59.9072 276.306 57.4856 267.451L54.7131 284.388C54.5026 287.305 54.1516 293.173 53.6603 301.888L56.2222 407.659L60.574 407.413Z" fill="#1E1E1E"/>
<path d="M6.212 218.641H6.9139C7.05428 218.641 7.19466 218.641 7.33504 218.641C7.54561 218.641 7.82637 218.641 8.07204 218.641C8.3177 218.641 8.56337 218.641 8.80904 218.641C10.1426 235.192 11.7921 264.112 13.5469 294.298C13.968 301.536 14.3892 308.846 14.8103 316.12C16.4949 344.864 19.9693 404.11 21.9697 409.1C22.6365 409.065 23.6543 409.03 24.9177 409.03C25.1633 409.03 25.409 409.03 25.6547 409.03C25.9003 409.03 26.146 409.03 26.3917 409.03C26.6373 409.03 26.8479 409.03 27.0936 409.03L26.8128 408.011C26.532 408.081 26.3917 408.292 26.3215 408.432C26.3215 408.467 26.2864 408.503 26.2864 408.538C26.2864 408.467 26.2864 408.362 26.3215 408.257C26.3215 407.975 26.3215 407.519 26.3215 406.921C26.3215 406.675 26.3215 406.429 26.2864 406.148C26.2864 405.902 26.2864 405.656 26.2513 405.375C25.8652 394.622 23.7946 358.955 21.7942 324.272C19.127 278.485 16.3896 231.186 16.1439 218.501C16.1439 218.255 16.1439 217.973 16.1439 217.763H16.8809H17.6179C17.6179 218.009 17.6179 218.255 17.6179 218.501C17.7232 223.455 18.2145 233.927 18.9515 247.456C22.6365 240.604 30.3223 223.385 30.954 218.114C30.9891 217.833 30.9891 217.587 30.9891 217.376L31.7261 217.341L32.4631 217.306C32.4631 217.517 32.4631 217.763 32.428 218.044C31.7612 224.439 21.8995 245.629 19.127 250.091L19.0919 250.162C20.2149 271.14 21.7942 298.62 23.3033 324.202C24.6018 346.34 25.7951 367.248 26.6373 382.886C27.0936 391.249 27.4094 397.398 27.5849 401.65C27.6551 402.915 27.6902 404.04 27.7253 404.989C27.7253 405.27 27.7604 405.516 27.7604 405.762C27.7604 406.043 27.7604 406.289 27.7955 406.535C27.7955 406.675 27.7955 406.781 27.7955 406.921C27.8306 408.116 27.8306 408.749 27.7253 409.1C28.006 409.1 28.3219 409.1 28.6378 409.1C32.0069 409.1 37.5519 409.1 41.658 408.854C41.9037 408.854 42.1494 408.819 42.395 408.819C42.6407 408.819 42.8864 408.784 43.132 408.749C44.9921 408.608 46.3959 408.362 46.817 408.046C47.0276 405.691 47.8348 388.297 48.8174 368.232C49.5193 354.071 50.2914 338.012 50.9933 323.675C51.4496 314.608 51.8005 307.51 52.1164 301.923L51.8707 292.189L53.2043 284.107C53.3447 282.526 53.4149 281.963 53.4851 281.788C53.6254 281.225 54.924 273.565 56.3278 265.026L58.5388 251.602L60.0128 251.848C59.5916 254.484 58.7844 259.404 57.9421 264.534C64.6102 278.274 62.8555 379.477 62.1886 403.548C62.1886 403.829 62.1886 404.075 62.1536 404.321C62.1536 404.602 62.1536 404.848 62.1185 405.094C62.0834 406.078 62.0483 406.851 62.0483 407.448L77.3146 406.64L78.0867 406.605L78.8237 406.57L80.6136 406.464L92.5459 255.327C92.7565 255.608 93.0021 255.925 93.2127 256.206C93.4233 256.487 93.6689 256.803 93.8795 257.084C110.058 277.747 131.852 299.463 145.82 307.124C150.698 309.794 154.875 312.184 158.911 314.538C170.176 321.004 179.055 326.134 194.076 331.651L194.673 331.862V331.827C194.708 331.827 194.743 331.862 194.778 331.862C194.953 341.807 189.408 353.122 172.668 377.298C171.791 378.528 170.738 379.969 169.544 381.656C161.051 393.287 146.803 412.755 151.049 428.568C151.295 429.481 151.471 430.36 151.611 431.203C142.486 429.973 135.923 419.642 141.574 397.258C143.258 390.651 153.541 379.055 152.664 378.704C142.732 374.944 130.624 394.411 129.29 400.42C127.711 407.589 121.148 432.573 145.083 443.01C150.032 445.189 156.314 445.329 160.385 444.627C163.368 445.189 167.509 445.47 173.194 445.505C174.703 445.505 176.318 445.54 178.073 445.54C184.741 445.54 193.093 445.435 201.797 445.364C216.888 445.189 232.505 445.013 239.559 445.364C241.209 445.435 243.7 443.994 244.859 441.499C245.631 439.883 246.368 436.579 242.753 432.644C240.963 430.711 239.138 429.446 238.331 428.919C238.331 427.302 238.226 425.827 238.12 424.034C238.015 421.996 237.875 419.712 237.804 416.374C237.664 410.716 237.875 387.981 238.05 367.951C238.12 358.569 238.226 349.713 238.261 343.142C238.296 339.628 238.296 337.063 238.296 335.271C238.296 334.041 238.296 333.233 238.261 332.741C239.138 332.178 239.629 331.616 239.77 331.089C240.226 329.262 239.805 324.026 238.717 323.253C238.577 323.148 238.436 323.112 238.296 323.077C238.331 322.866 238.366 322.656 238.401 322.445C238.682 320.617 239.033 318.544 240.823 317.912C245.28 316.33 249.877 310.427 250.719 305.226C251.141 302.555 250.509 300.517 248.894 299.252C245.209 296.441 242.753 295.317 241.103 294.579C238.19 293.279 237.734 293.068 236.471 285.091C236.05 282.455 235.979 280.769 235.909 279.293C235.769 276.306 235.664 274.514 233.031 268.926C232.435 267.661 231.593 267.451 231.031 267.556C227.206 268.013 222.257 283.756 221.906 285.231C221.731 285.407 220.503 286.251 212.396 286.286C212.045 285.021 211.624 283.474 211.167 281.858C209.974 277.606 208.465 272.3 208.009 269.067C207.693 266.818 206.394 266.642 205.833 266.678C201.937 266.888 195.059 279.082 194.673 291.662C194.567 295.141 194.813 301.888 195.024 308.389C195.199 313.765 195.41 319.774 195.339 321.742C195.129 321.777 194.953 321.847 194.848 321.918C193.936 322.55 193.971 324.167 194.006 326.451C194.041 327.645 194.041 329.086 193.865 330.035C179.371 324.659 170.668 319.634 159.648 313.308C155.612 310.989 151.435 308.564 146.522 305.894C132.379 298.163 110.164 275.849 94.055 255.011C93.8093 254.73 93.5987 254.414 93.3882 254.133C93.1776 253.851 92.9319 253.535 92.7214 253.254L95.6343 216.111C95.915 216.111 96.1607 216.076 96.3713 216.076C96.652 216.076 96.8977 216.041 97.1083 216.041C98.3366 216.006 99.0385 215.97 99.1087 215.97L99.8457 215.935V215.197C99.7755 208.732 99.7755 201.985 99.7404 194.886C99.7053 176.333 99.6702 156.795 98.5822 139.295C103.18 141.017 107.672 141.93 111.708 141.93C113.533 141.93 115.252 141.755 116.867 141.403C125.465 139.471 130.168 132.443 130.133 121.584C130.133 118.738 128.834 103.101 127.044 87.3581C123.64 57.0322 121.885 56.0132 121.219 55.6618C120.552 55.2752 119.464 55.0995 118.095 55.0293C118.411 52.2532 117.674 46.7011 116.27 41.2192C115.112 36.7565 112.515 28.7445 108.304 25.3711C108.268 25.3359 103.215 21.6111 99.214 19.6081L100.162 11.7719C100.302 10.6474 99.4947 9.59322 98.3717 9.4878C97.8102 9.41752 97.2837 9.55808 96.8626 9.90948C96.4415 10.2609 96.1607 10.7528 96.0905 11.2799L95.3184 18.2728C94.3708 18.3431 93.5637 18.7648 92.9319 19.819C92.3704 20.7677 92.8267 21.7517 93.6338 22.595C93.2127 22.6653 92.8968 22.8761 92.6512 23.0518C91.2825 21.9274 89.9138 21.4003 88.5451 22.349C86.1586 23.4032 87.3518 26.4253 88.6854 29.9744C89.8436 32.9965 91.1772 36.4402 90.8964 39.5677C90.8262 40.5867 91.2825 42.3789 92.0546 44.417L90.8964 53.7291C90.7561 54.8536 91.5632 55.9078 92.6863 56.0132C92.7565 56.0132 92.8617 56.0132 92.9319 56.0132C93.9497 56.0132 94.8622 55.2401 94.9675 54.1859L95.3535 51.1639C96.5818 53.202 97.8452 54.8536 98.8981 55.4861C98.9683 57.1377 99.0385 58.0864 99.3192 58.6838C97.5294 59.5623 96.5467 60.476 96.3362 61.4599C96.3011 61.5653 96.3011 61.5653 96.3362 64.8333C96.3362 67.7851 96.3713 72.6695 96.3713 76.3944C96.3713 76.6755 96.3713 77.1675 96.3713 77.8C96.3713 79.5921 96.3362 80.9626 96.266 81.3843L96.4414 81.4194C96.4765 82.7196 96.5116 84.1603 96.5467 85.7416C96.5818 87.3581 96.652 89.2205 96.6871 91.1532C96.0905 91.0126 94.3007 90.1693 93.5637 89.7476C91.3878 88.4123 87.0009 86.6201 83.737 85.2497C80.9996 83.7035 74.2263 81.4897 67.6284 79.3461C64.8559 78.4325 62.2237 77.5891 59.9075 76.7809C59.8022 76.7458 58.995 76.7106 57.7667 76.7106C56.9595 72.7398 56.2225 68.9447 56.0119 67.4337C56.1172 67.4337 56.2225 67.3985 56.3278 67.3985C59.8022 66.9417 70.3307 65.5713 70.1552 57.4188C69.9447 46.1037 67.2423 35.7023 62.5747 28.1472C61.592 26.5307 60.5041 25.0548 59.381 23.7898C62.6098 22.3842 64.8208 19.4324 65.2419 15.813C65.7683 11.5962 63.7679 7.66052 59.9426 5.30614C56.398 3.12746 50.888 4.07624 46.1502 6.21978C45.5887 6.71174 45.0973 7.27398 44.606 7.80108C44.1849 8.29304 43.7988 8.785 43.4128 9.3121C42.8864 10.05 42.4652 10.788 42.1143 11.4556C40.4297 14.8642 38.4995 17.57 35.7621 20.1352C35.727 20.2055 35.6217 20.3109 35.6217 20.3461L34.3933 19.5378C34.639 19.2216 34.639 19.1864 34.7092 19.1162C37.3413 16.6212 39.1663 14.1263 40.7807 10.8231C40.8508 10.6826 40.921 10.542 41.0263 10.3663C41.2018 10.0149 41.4124 9.6635 41.6229 9.3121C41.8686 8.92556 42.1143 8.53902 42.4301 8.15248C41.2369 8.71473 39.7278 9.27696 38.0081 9.87434C34.4986 11.1394 30.1468 12.6855 26.6724 15.2859C21.6538 19.0459 21.0923 26.4956 22.6716 31.8017C22.812 32.2234 22.9874 32.9262 23.198 33.7696C20.4255 35.5617 20.4255 37.5295 22.0399 41.6409C22.8822 43.7845 23.7946 46.42 24.7071 48.95C25.4792 51.1639 26.1109 52.9209 26.6022 54.1859C25.6547 53.7291 24.8124 53.6588 24.2509 54.1859C21.3731 57.1377 23.7946 61.2139 26.146 65.1847C26.3566 65.501 26.532 65.8524 26.7426 66.1686C28.4623 68.9798 30.217 71.8613 30.1468 77.1675C17.302 81.6302 2.70249 89.0096 0.491502 94.9132L0.456407 94.9834C-1.96515 104.225 5.82595 213.3 6.1769 217.938L6.212 218.641ZM209.553 434.717C206.5 431.976 202.709 428.532 205.517 421.715C209.623 411.771 204.745 396.274 197.621 388.086C193.83 383.694 189.759 381.761 186.25 382.675L185.864 381.234C189.97 380.18 194.532 382.253 198.744 387.102C202.499 391.425 205.587 397.574 207.237 403.97C209.026 410.892 208.886 417.428 206.886 422.313C204.499 428.146 207.552 430.922 210.536 433.628C212.501 435.42 214.361 437.107 214.185 439.496L212.711 439.391C212.817 437.669 211.308 436.298 209.553 434.717ZM238.05 324.553C238.436 325.783 238.822 329.051 238.436 330.492C238.366 330.703 238.085 331.019 237.489 331.335L237.278 331.405C234.225 332.67 231.066 333.549 227.732 334.076C225.837 334.322 223.731 334.533 221.31 334.638C221.099 334.638 220.924 334.638 220.713 334.673C213.378 334.779 205.341 333.338 196.498 330.316C196.392 330.035 196.111 329.789 195.69 329.824C195.585 329.824 195.515 329.859 195.41 329.859C195.585 328.805 195.585 327.47 195.55 326.205C195.55 325.115 195.515 323.534 195.725 323.007C195.761 323.007 195.761 323.042 195.796 323.042C200.498 326.661 210.43 328.594 219.73 328.594C226.714 328.594 233.382 327.505 237.243 325.15C237.453 325.01 237.629 324.834 237.769 324.659C237.91 324.623 237.98 324.588 238.05 324.553ZM202.043 289.448C202.043 288.781 202.393 284.599 202.955 280.523C204.113 272.124 205.026 271.949 205.657 271.843L205.903 273.319C206.008 273.284 206.078 273.249 206.078 273.249C204.92 274.408 203.481 287.551 203.481 289.448H202.043ZM228.083 286.672C228.083 283.228 229.241 279.714 230.364 276.306C230.68 275.287 230.996 274.373 231.277 273.424L232.716 273.846C232.435 274.795 232.119 275.814 231.768 276.763C230.68 280.066 229.557 283.439 229.557 286.672H228.083ZM242.402 300.904C244.367 300.939 245.946 300.974 246.824 302.099C247.561 303.047 247.561 304.523 246.929 307.053C246.438 308.916 245.315 310.286 243.841 310.778C243.49 310.884 243.034 310.989 242.542 310.989C241.489 310.989 240.156 310.603 238.541 309.373L238.471 309.302C236.927 307.686 235.839 304.84 236.681 302.907C237.138 301.923 238.226 300.763 241.068 300.869C241.489 300.904 241.946 300.904 242.402 300.904ZM8.70375 217.13C8.42299 217.13 8.17732 217.13 7.96675 217.13C7.82637 217.13 7.72109 217.13 7.6158 217.13C7.51052 215.619 7.22976 211.824 6.87881 206.483C6.87881 206.377 6.87881 206.237 6.84371 206.096C6.84371 205.85 6.80862 205.604 6.80862 205.358C4.7731 175.665 0.0352657 102.785 1.8953 95.4051C3.50968 91.2235 14.1084 84.7577 27.3041 79.803C27.3392 79.9787 27.4094 80.4003 27.62 81.4194C27.6902 81.7357 27.7604 82.0871 27.8306 82.5087C27.8657 82.6493 27.9008 82.7899 27.9008 82.9304C27.9359 83.1413 28.006 83.3872 28.0411 83.6332C28.6378 86.5498 29.5151 90.8721 30.1819 94.2455C30.217 94.6672 30.2872 95.1591 30.3223 95.6862C30.3574 95.9322 30.3925 96.2133 30.3925 96.4945C30.4276 96.7404 30.4627 97.0216 30.4627 97.3027C31.1997 104.612 32.5333 118.316 33.2001 126.223C29.4449 135.535 32.6386 148.256 38.6749 161.785C28.1815 156.83 16.6352 142.633 7.6509 114.029L6.212 114.486C15.7579 144.812 28.2868 159.255 39.5874 163.788C45.2026 175.911 52.9235 188.596 59.8724 200.017C60.6445 201.247 61.3815 202.477 62.0834 203.671C62.2237 203.917 62.3641 204.163 62.5396 204.409C62.68 204.655 62.8204 204.901 62.9958 205.147C65.2068 208.802 67.2423 212.211 69.0322 215.373C46.3959 216.076 17.7232 216.99 8.70375 217.13ZM25.2686 55.3104C25.6898 55.3104 26.7075 55.9429 27.8306 56.8214C28.4272 57.2782 29.0238 57.8053 29.6204 58.3676L29.6906 58.4378L30.1468 58.8595L30.2872 58.7541L30.6733 58.4027C30.7084 58.3676 30.7786 58.2973 30.8487 58.227C30.9891 58.0864 31.1646 57.9107 31.3752 57.6648C31.5857 57.4188 31.8314 57.1377 32.1473 56.8214C32.1824 56.7863 32.2175 56.716 32.2876 56.6808C32.4982 56.47 32.7088 56.224 32.9194 55.978C33.165 55.6969 33.4107 55.4158 33.6914 55.1347C36.7447 51.8315 41.4124 46.8768 45.1324 44.2764C45.3079 44.171 45.4834 44.0304 45.6589 43.925C45.7291 43.8899 45.7992 43.8547 45.8694 43.7845C46.1151 43.6088 46.3608 43.4682 46.5713 43.3628C48.1506 42.4843 48.9578 42.414 49.3439 42.5897C49.4842 42.6248 49.8352 42.8005 50.0808 43.8196C50.2563 44.5575 49.9054 46.174 49.7299 46.9471C49.5544 47.2282 49.3088 47.6147 49.028 48.1067C48.6069 48.7743 47.7295 50.2151 46.8872 51.4098C46.6064 51.7964 46.3608 52.1478 46.1151 52.464C45.7992 52.8506 45.5536 53.1317 45.3079 53.2723C45.2377 53.3074 45.1675 53.3425 45.0973 53.3777L45.2026 54.0453L45.343 54.8536C45.5185 54.8184 45.694 54.7481 45.8694 54.6427C46.1151 54.5022 46.3959 54.2562 46.7117 53.9751C47.6593 53.0263 48.7823 51.3044 50.2563 48.8798C50.3265 48.7392 50.4318 48.5986 50.502 48.4932C50.6073 48.4581 50.7126 48.4229 50.8178 48.3878C51.0635 48.2824 51.4846 48.1418 51.7654 48.2824C52.0462 48.4229 52.2918 48.8095 52.4673 49.4069C52.6779 50.0745 52.362 51.2693 52.1164 52.1126C51.9058 52.8857 51.7303 53.448 51.8356 53.9048C51.5899 54.221 51.3443 54.6076 50.9933 55.205C50.2212 56.4349 49.1684 58.1567 47.94 59.0704L48.8174 60.2651C50.2914 59.1758 51.4496 57.3485 52.2567 55.978C52.5024 55.5915 52.7832 55.0995 52.9937 54.8184C53.2043 54.9238 53.3798 55.1347 53.5202 55.4158C54.0817 56.6106 53.8711 59.1055 52.0462 61.8464C48.3612 67.3985 48.8876 73.0912 49.765 76.7809C49.8352 77.0269 49.8703 77.2729 49.9405 77.5189C50.0107 77.7648 50.0808 78.0108 50.151 78.2568C50.2563 78.6785 50.3967 79.0299 50.4669 79.3813C50.502 79.5218 50.5722 79.6624 50.6073 79.8381V79.8732C49.3088 79.6975 46.8872 79.4516 43.483 79.1002C41.3071 78.8542 38.7451 78.6082 36.5341 78.3622C34.6741 78.1514 33.0246 77.9757 32.042 77.8351C31.8665 77.8 31.691 77.8 31.5857 77.7648C31.5857 77.7648 31.5857 77.7648 31.5857 77.7297C31.5857 77.6594 31.5857 77.5891 31.5857 77.554C31.5857 77.3783 31.5857 77.1675 31.5857 76.9918C31.5857 76.8161 31.5857 76.6404 31.5857 76.4647C31.5506 75.2699 31.4454 74.1806 31.2348 73.1615C30.6031 69.8583 29.2344 67.6094 27.9709 65.5361C27.7604 65.2199 27.5849 64.9036 27.3743 64.5522C24.8475 60.0894 23.4086 57.2782 25.2686 55.3104ZM28.8834 55.6618L28.8132 55.5212C28.357 54.8536 27.234 51.5855 26.1109 48.4581C25.1984 45.8929 24.286 43.2574 23.4437 41.0787C22.2505 38.0566 21.9346 36.6159 23.6192 35.2806C23.7946 35.14 24.0403 34.9995 24.286 34.8238C24.4965 34.6832 24.7071 34.5778 24.9528 34.4372C25.7249 34.0155 26.7426 33.5938 27.9709 33.1019C28.8132 32.7505 29.7608 32.2937 30.7435 31.8017C32.0771 31.1341 33.3054 30.5367 34.4284 30.115C34.7443 30.0096 35.0251 29.9042 35.3058 29.7987C35.5866 29.6933 35.9024 29.623 36.1832 29.5879C36.6043 29.4825 37.0255 29.4473 37.4115 29.4473C38.4293 29.4473 39.2716 29.7987 39.9033 30.6421C40.0437 30.8529 40.2191 31.0989 40.3946 31.38C40.535 31.5909 40.6754 31.8369 40.7807 32.0828C40.8859 32.2937 41.0263 32.5397 41.1316 32.7856C42.5354 35.5617 44.0445 39.6379 44.9219 42.5194C44.8868 42.5194 44.8868 42.5546 44.8517 42.5546C41.3422 44.8387 36.9553 49.3014 33.7616 52.7452C33.4809 53.0263 33.2352 53.3074 32.9895 53.5885C32.7088 53.8696 32.4631 54.1508 32.2175 54.4319C31.8314 54.8536 31.4805 55.2401 31.1646 55.5915C30.7435 56.0483 30.3925 56.4349 30.1117 56.7511C29.7257 56.3997 29.3046 56.0483 28.9185 55.6969C28.8834 55.6969 28.8834 55.6969 28.8834 55.6618ZM56.1172 65.9227C54.9942 66.0632 54.4326 66.1335 54.4326 66.8714C54.4326 67.6797 55.1696 71.5099 56.1874 76.7106C54.7836 76.7106 53.099 76.7106 51.2741 76.7106C50.4318 73.2669 49.8001 67.8554 53.2745 62.6195C55.1696 59.7732 55.7663 56.6808 54.8538 54.713C54.5028 53.9751 53.9764 53.4831 53.3096 53.2723C53.3447 53.0263 53.45 52.71 53.5202 52.464C53.836 51.3747 54.187 50.0042 53.8711 48.9149C53.5553 47.8958 53.0639 47.2282 52.3971 46.9119C52.0111 46.7362 51.625 46.7011 51.2741 46.7011C51.4846 45.682 51.7303 44.3467 51.5197 43.4331C51.239 42.2383 50.6775 41.5004 49.8703 41.149C48.9578 40.7976 47.7997 41.0084 46.2204 41.8166C45.2728 38.7946 43.6234 34.3669 42.0792 31.4855C42.4652 30.7826 42.746 29.9042 42.9916 28.8499C44.0445 27.7957 53.5553 25.2657 57.8369 24.3169C63.7328 30.8529 68.3654 42.5897 68.6461 57.4891C68.7865 64.2711 59.2758 65.501 56.1172 65.9227ZM59.4863 78.2568C61.8026 79.065 64.3996 79.9084 67.1371 80.7869C71.173 82.0871 75.5599 83.5278 78.8237 84.7577C79.315 85.074 80.5785 85.6011 82.9649 86.585C83 86.585 83.0351 86.6201 83.0702 86.6201C83.1755 86.6904 83.2808 86.7607 83.3861 86.831C89.9138 92.2777 94.1603 105.912 96.3362 128.542C96.5818 131.248 96.8275 134.059 97.003 136.905C97.0381 137.468 97.0732 138.03 97.1083 138.592C98.2313 156.197 98.2664 175.77 98.3015 194.816C98.3015 201.669 98.3366 208.134 98.3717 214.424C98.0909 214.424 97.7049 214.459 97.2837 214.459C97.0381 214.459 96.7924 214.459 96.5467 214.495C96.3011 214.495 96.0554 214.495 95.8097 214.53C91.0719 214.705 81.7015 215.022 70.7518 215.373C68.9971 212.211 66.9616 208.802 64.7506 205.147C64.6102 204.901 64.4698 204.655 64.2943 204.409C64.154 204.163 64.0136 203.917 63.8381 203.671C62.9607 202.231 62.0834 200.79 61.1709 199.279C60.9603 198.928 60.7497 198.576 60.5041 198.225C60.3637 196.819 61.6973 191.794 63.066 186.488C66.4352 173.557 70.9975 155.951 67.488 149.099C69.0673 144.039 69.4182 138.206 68.225 132.232C68.0144 131.213 67.6284 128.929 67.0669 125.801C65.8385 118.773 63.9785 108.126 62.0483 98.9543C61.5218 96.389 61.0305 94.2104 60.5743 92.3479C59.8373 89.2908 59.2056 87.0769 58.6791 85.4605C58.0825 83.6332 57.5912 82.6493 57.2051 82.0519C56.7489 81.3843 56.4331 81.2788 56.1874 81.2086C55.5908 80.9977 54.1168 80.6463 52.1866 80.2246C52.1164 79.9084 52.0111 79.5218 51.8707 78.9947C51.8005 78.7839 51.7303 78.5731 51.6601 78.3271C53.4851 78.3271 55.1345 78.3271 56.4681 78.3271C56.7489 78.3271 56.9946 78.3271 57.2402 78.3271C57.521 78.3271 57.7667 78.3271 58.0123 78.3271C58.7844 78.2217 59.2758 78.2217 59.4863 78.2568ZM33.6213 132.091L35.0952 132.337C35.3409 130.651 33.2352 109.075 32.2525 99.0948L32.6386 99.0597C32.6386 98.8137 32.5684 98.3569 32.428 97.6892C32.3929 97.4432 32.3578 97.1973 32.2876 96.9161C32.2525 96.6702 32.1824 96.4242 32.1473 96.1431C31.5506 92.9102 30.4627 87.6392 29.4449 82.6142C29.3748 82.2979 29.3046 82.0168 29.2695 81.7357C29.1993 81.3491 29.1291 80.9977 29.0589 80.6815C28.9536 80.2246 28.8834 79.8381 28.8483 79.6624C28.8483 79.6273 28.8483 79.6273 28.8483 79.5921C28.8483 79.557 28.8834 79.5218 28.9887 79.4516C29.2695 79.2759 29.6906 79.1353 30.2521 79.0299C30.3925 78.9947 30.568 78.9947 30.7435 78.9596C30.8487 78.9947 30.9891 79.0299 31.1646 79.065C31.3752 79.1002 31.6559 79.1353 31.9367 79.1704C32.6386 79.2759 33.6213 79.3813 34.9198 79.557C37.3413 79.8381 40.5701 80.1895 43.4128 80.4706C47.0276 80.8572 50.7827 81.2437 51.3092 81.3491C51.3443 81.3491 51.3443 81.3491 51.3794 81.3491C53.4149 81.7708 54.9942 82.1925 55.8364 82.4385C56.1523 82.6142 57.135 83.8792 59.1705 92.2425C59.2758 92.6291 59.3459 93.0156 59.4512 93.4373C59.5214 93.7535 59.5916 94.0698 59.6618 94.3861C60.0128 95.8971 60.3637 97.5838 60.7848 99.4814C62.68 108.547 64.5049 118.984 65.7333 125.907C66.2948 129.069 66.6808 131.318 66.8914 132.372C69.8394 146.78 63.3117 160.344 52.0462 163.26C48.6419 164.139 44.8166 163.998 40.8157 162.523C35.3058 150.54 31.9718 139.19 33.6563 130.369C33.6213 131.283 33.6213 131.88 33.6213 132.091ZM47.6593 165.334C49.2737 165.334 50.8529 165.123 52.362 164.736C58.995 163.014 64.0838 157.884 66.8212 151.102C68.8567 158.411 64.6102 174.822 61.6973 185.996C60.5041 190.635 59.6618 193.903 59.3109 196.011C53.1692 185.891 46.6415 174.962 41.6229 164.42C43.6584 165.053 45.694 165.334 47.6593 165.334ZM92.3002 240.287L90.8964 240.779C90.2647 238.952 84.7899 220.468 83.8423 216.322C83.7721 216.006 83.737 215.76 83.7019 215.619L84.4389 215.549L85.1759 215.479V215.514C85.1759 215.654 85.2461 215.9 85.3163 216.252C86.3341 220.468 91.6334 238.39 92.3002 240.287ZM98.0909 42.0626C97.6698 40.9381 97.2837 39.8136 96.9328 38.8649C96.7222 38.2323 96.5116 37.6701 96.3713 37.2133C96.3713 37.143 96.3362 37.1079 96.3362 37.0376C96.1256 36.2645 95.9852 35.632 95.8799 35.14C95.5992 33.4533 95.9852 33.1722 96.0203 33.137C96.0203 33.137 96.0554 33.1019 96.1256 33.1019C96.1607 33.1019 96.1958 33.1019 96.266 33.1019C96.4063 33.1019 96.5818 33.137 96.8626 33.2073C97.0732 33.2776 97.2837 33.3479 97.5645 33.4884C97.7751 33.5939 98.0558 33.7344 98.3366 33.9101C98.3717 33.9453 98.4419 33.9804 98.477 34.0155L98.4419 34.0507C98.5121 34.0858 98.6173 34.121 98.6875 34.1912C99.214 34.5778 99.6702 34.9292 100.021 35.1751C100.653 35.632 100.969 35.8428 101.179 35.9834C102.513 37.143 103.741 38.4432 104.408 39.3217L105.601 38.408C104.548 37.0376 102.373 34.8238 100.337 33.4181C99.9159 33.1019 99.5298 32.8559 99.1438 32.6099C98.7226 32.2585 98.2664 31.9071 97.8102 31.5206C97.5996 31.3449 97.3539 31.1341 97.1433 30.9232C96.8977 30.7124 96.6871 30.5367 96.4765 30.3258C96.1256 30.0096 95.7746 29.6582 95.4588 29.3419C95.2131 29.0959 95.0026 28.85 94.792 28.6391C94.5463 28.358 94.3357 28.0769 94.1252 27.8309C94.055 27.7255 93.9497 27.5849 93.9146 27.4795C93.5637 26.9172 93.3531 26.3199 93.2829 25.7928C93.1776 25.1251 93.2829 24.5277 93.5286 24.2466C93.5987 24.1763 93.6689 24.1412 93.7742 24.0709C94.0199 23.9655 94.3357 24.0006 94.6165 24.0709C94.8271 24.106 95.0026 24.1763 95.1429 24.2466L95.3535 24.3169L95.7045 24.4574C95.8448 24.5277 95.9501 24.5629 96.0554 24.598C96.1256 24.6331 96.1958 24.6683 96.266 24.6683C96.5467 24.8088 96.8275 24.9494 97.1433 25.09C97.3539 25.1954 97.5996 25.3359 97.8452 25.4765C98.0909 25.6171 98.3015 25.7576 98.5471 25.8982C100.688 27.1984 103.18 29.0608 104.759 30.8881L105.882 29.9042C104.127 27.866 101.249 25.7225 98.7577 24.2817C98.5121 24.1412 98.3015 24.0006 98.0558 23.8952C97.9505 23.8249 97.8453 23.7898 97.74 23.7195C97.6347 23.6141 97.4943 23.5087 97.3539 23.4384C97.3188 23.4032 97.2837 23.4032 97.2486 23.3681C96.8977 23.1573 96.5467 22.9464 96.266 22.7356C96.0203 22.5599 95.7746 22.3842 95.5641 22.2436C95.2833 22.0328 95.0727 21.8219 94.8973 21.6814C94.055 20.8732 94.1954 20.5569 94.2305 20.5218C94.441 20.1704 94.6867 19.8541 95.1429 19.7487C95.3535 19.6784 95.5992 19.6784 95.915 19.7135C96.1256 19.7487 96.3713 19.7838 96.652 19.8541C96.9679 19.9595 97.3188 20.0649 97.74 20.2406C97.9505 20.3461 98.1962 20.4515 98.4419 20.5569C98.477 20.5569 98.5121 20.592 98.5471 20.592C98.7577 20.6975 98.9683 20.8029 99.1789 20.9083C102.934 22.841 107.496 26.2144 107.531 26.2496C113.954 31.4152 117.393 49.9691 116.762 54.6779C116.375 54.6779 115.919 54.713 115.358 54.7833C111.322 55.2401 103.425 57.0322 101.881 57.5593C101.846 57.5593 101.846 57.5593 101.811 57.5945C101.53 57.6999 100.934 57.9107 100.688 57.9107C100.512 57.5593 100.477 56.1889 100.407 54.6427C100.337 53.0263 100.267 50.8476 100.021 47.8958C99.9861 47.2633 99.2491 45.2603 98.0909 42.0626ZM92.4055 39.7082C92.6863 36.2294 91.2474 32.4694 90.0892 29.4473C88.8258 26.1793 88.1239 24.1412 89.1768 23.7195L89.247 23.6844L89.3171 23.6141C89.9839 23.1221 90.8262 23.4735 91.844 24.352C91.5632 25.4765 91.8089 26.9524 92.6161 28.2526C92.8968 28.7445 93.318 29.2716 93.8795 29.869L92.5459 40.8327C92.4406 40.411 92.3704 40.0245 92.4055 39.7082ZM95.7045 48.7041L96.5116 42.1329C96.5818 42.2734 96.6169 42.414 96.6871 42.5546C97.4943 44.7684 98.5121 47.5444 98.5471 48.1067C98.7226 50.2854 98.7928 52.0775 98.863 53.4831C98.0558 52.6046 96.9328 50.953 95.7045 48.7041ZM92.7916 91.0126C93.1074 91.1883 95.6694 92.5939 96.7222 92.6642C96.8626 98.3569 96.9328 104.12 96.6871 104.893L98.0909 105.35C98.477 104.155 98.3015 96.4242 98.0207 85.6713C97.9505 82.4385 97.8452 79.5218 97.8452 77.8C97.8803 74.4968 97.8452 69.5069 97.8452 64.7982C97.8452 63.3223 97.8452 62.0573 97.8452 61.741C97.9505 61.4599 98.4419 60.7219 100.793 59.6677C101.249 59.4569 101.741 59.2812 102.232 59.1055C102.267 59.1055 102.267 59.1055 102.302 59.0704C104.057 58.4378 111.252 56.9268 114.972 56.3997C115.779 56.3294 116.551 56.2943 117.218 56.2943L117.814 56.47L117.849 56.2943C119.078 56.3294 120.025 56.4349 120.517 56.716C120.868 57.0674 122.587 60.1597 125.676 87.7797C127.43 103.276 128.694 118.598 128.694 121.338C128.729 131.564 124.553 137.889 116.586 139.682C111.462 140.841 105.11 139.998 98.5121 137.433C97.0381 115.435 93.8444 96.881 86.7201 88.096C89.1066 89.1502 91.4229 90.1693 92.7916 91.0126Z" fill="#1E1E1E"/>
<path d="M113.638 435.947C97.9503 435.314 86.369 429.938 80.9643 413.387L81.2451 414.301C80.6134 414.617 79.4903 414.898 78.0163 415.074C78.0865 414.476 78.1567 413.844 78.2269 413.211C78.4375 411.138 78.6129 409.381 78.7533 407.905L78.0163 407.94L77.2442 407.976C77.0688 409.733 76.8933 411.56 76.7178 413.036C76.6476 413.809 76.5774 414.512 76.4721 415.214C72.366 415.601 66.5753 415.671 62.0832 415.741C62.0832 413.493 62.0481 410.927 62.0481 408.784L61.3111 408.819L60.5741 408.854C60.5741 410.295 60.5741 411.911 60.6092 413.492C60.6092 414.266 60.6092 415.004 60.6092 415.706C58.7842 415.741 57.24 415.777 56.2925 415.812C57.6261 419.607 56.8189 424.456 56.6434 428.743C59.9073 431.59 64.0134 433.171 68.7863 435.033C70.9271 435.877 73.1381 436.72 75.5246 437.774L75.9457 437.95C80.473 439.918 85.1055 442.307 85.0704 445.083C85.0704 445.259 85.0353 445.435 85.0003 445.61C97.9503 445.646 120.095 444.556 122.868 443.291C122.903 443.397 121.71 436.263 113.638 435.947Z" fill="#1E1E1E"/>
<path d="M23.4435 423.894C23.4084 426.038 23.4084 428.251 23.268 430.289C22.7767 437.985 22.4608 443.221 22.4959 445.048C23.619 444.908 25.5843 444.873 28.1112 444.873C29.1289 444.873 30.0414 444.873 30.4976 444.837C31.5154 444.767 32.1471 443.924 32.9192 442.694C33.5509 441.675 34.2528 440.656 35.446 440.726C36.6743 440.796 37.7272 442.026 39.3416 445.294C40.8507 445.786 48.7471 446.454 60.0477 446.84C73.1381 447.262 80.3326 446.946 81.4557 446.489C82.0172 446.243 82.4734 445.997 82.7542 445.751C82.9647 445.575 83.07 445.4 83.07 445.224C83.07 444.662 82.2979 443.08 75.1385 439.953L74.7174 439.777C73.7347 439.356 72.7872 438.934 71.8396 438.547C71.7343 438.512 71.5939 438.442 71.4887 438.407C70.3305 437.95 69.2075 437.493 68.0844 437.071C63.8028 435.42 59.9073 433.909 56.6083 431.449C52.8532 428.673 49.9052 424.702 48.0451 417.92C46.8519 418.201 45.0621 418.377 42.8862 418.482C42.6405 418.482 42.3948 418.518 42.1492 418.518C41.9035 418.518 41.6578 418.553 41.4122 418.553C37.3762 418.693 32.2875 418.623 27.1636 418.518C26.9179 418.518 26.6723 418.518 26.4266 418.518C26.3915 418.518 26.3564 418.518 26.3213 418.518C26.1107 418.518 25.8651 418.518 25.6545 418.518C24.8824 418.518 24.1805 418.482 23.619 418.482C23.4786 419.747 23.4786 421.786 23.4435 423.894Z" fill="#1E1E1E"/>
<path d="M26.0056 38.3027C25.9003 38.2675 25.8301 38.2675 25.7249 38.2675C25.5494 38.2675 25.409 38.3027 25.2686 38.3729C24.9528 38.5486 24.7422 38.8649 24.7422 39.2163C24.7422 39.4271 24.8124 39.6028 24.8826 39.7434C25.058 40.0245 25.3739 40.2002 25.7249 40.2002C25.7599 40.2002 25.7599 40.2002 25.795 40.2002C26.0758 40.1651 26.3215 40.0597 26.4618 39.8488C26.6022 39.6731 26.7075 39.4623 26.7075 39.2163C26.7075 38.7946 26.3917 38.4432 26.0056 38.3027Z" fill="#1E1E1E"/>
<path d="M87.0711 7.83622C88.2643 8.57416 89.4224 9.27696 90.3349 10.0852L91.3527 8.99584C90.3349 8.0822 89.1417 7.34426 87.8783 6.57118C86.3341 5.6224 84.7548 4.67362 83.2457 3.23288C83.2106 3.19774 79.2098 0.14056 78.8588 0L78.5781 0.84336L78.2622 1.33532C78.543 1.51102 81.9472 4.0411 82.228 4.28708C83.8423 5.86838 85.562 6.92258 87.0711 7.83622Z" fill="#1E1E1E"/>
<path d="M86.0181 14.5479L86.6849 13.2126C85.246 12.5098 82.649 11.9827 80.1572 11.4907C78.2972 11.1393 76.5424 10.7879 75.3843 10.4014L74.8929 11.807C76.1213 12.2286 77.9462 12.58 79.8413 12.9666C82.2629 13.4585 84.7547 13.9154 86.0181 14.5479Z" fill="#1E1E1E"/>
<path d="M76.0863 18.7999V20.3109C77.1392 20.3109 78.2973 20.1352 79.4203 19.9946C80.5434 19.8189 81.7015 19.6784 82.7894 19.6784V18.1674C81.5962 18.1674 80.3679 18.3431 79.2098 18.5188C78.0867 18.6593 77.069 18.7999 76.0863 18.7999Z" fill="#1E1E1E"/>
<path d="M238.015 303.539C237.453 304.804 238.331 307.018 239.489 308.248C240.928 309.373 242.261 309.759 243.349 309.408C244.332 309.091 245.104 308.072 245.455 306.702C245.946 304.769 246.016 303.539 245.63 303.047C245.209 302.485 243.946 302.45 242.402 302.45C241.945 302.45 241.489 302.45 240.998 302.415C239.383 302.309 238.366 302.696 238.015 303.539Z" fill="#1E1E1E"/>
</g>
<defs>
<clipPath id="clip0_3_99">
<rect width="251" height="448" fill="white"/>
</clipPath>
</defs>
</svg>
