<svg width="80" height="113" viewBox="0 0 80 113" fill="none" xmlns="http://www.w3.org/2000/svg">
<path d="M80.0943 119.332C79.3962 121.251 78.7349 123.171 77.3021 124.758C76.4571 125.717 75.759 126.862 75.2079 128.043C74.9875 128.449 74.6201 128.596 74.3996 128.966C73.8853 129.851 73.7016 130.848 73.077 131.697C71.6442 133.616 70.2113 135.573 68.705 137.455C67.713 138.71 66.7578 140.002 65.729 141.22C63.7818 143.471 61.3203 145.022 58.6015 146.092C55.4419 147.347 52.319 148.713 49.0859 149.746C43.0606 151.666 36.9251 152.441 30.5691 151.702C26.7482 151.26 23.0007 150.521 19.7309 148.565C14.4403 145.391 10.105 141.22 7.05563 135.831C6.94541 135.646 6.79845 135.462 6.65149 135.24C5.40234 133.542 4.26341 131.771 3.71231 129.704C3.41839 128.67 3.01426 127.674 2.53664 126.714C1.17727 123.835 1.43445 120.919 2.53664 118.04C3.63883 115.124 5.51256 112.651 7.60673 110.473C10.399 107.558 11.7216 104.162 12.1257 100.249C12.5299 96.5951 11.8685 93.0886 11.244 89.5452C10.8398 87.3675 10.5092 85.1898 10.0683 83.0121C9.37024 79.5056 7.79043 76.4051 6.13714 73.2677C4.00623 69.2076 2.35294 64.9259 1.36097 60.4229C0.515952 56.658 0.956829 52.9301 2.20598 49.3867C2.94078 47.3197 3.89601 45.3265 5.43908 43.6655C6.94541 42.0415 8.48848 40.4543 10.2887 39.1625C14.624 36.062 19.4002 33.8843 24.4703 32.2971C30.2752 30.4885 35.8964 28.3477 40.8195 24.6936C44.4935 21.9991 47.9837 19.0832 51.3271 15.9827C55.8828 11.7749 60.659 7.86239 66.1699 4.98337C71.5707 2.14127 77.1551 -0.0364482 83.2539 0.000462282C92.4756 0.0742832 100.338 3.35931 105.922 10.9629C110.037 16.5733 110.735 23.0326 109.376 29.7503C109.119 30.9683 108.898 32.1864 108.604 33.4044C107.87 36.5049 106.62 39.347 104.783 41.9676C103.718 43.481 102.542 44.9574 101.477 46.4707C100.228 48.2424 98.7948 49.8665 97.362 51.4536C95.672 53.2992 94.2024 55.2554 92.7695 57.2855C92.2919 57.9868 91.4836 58.4297 91.006 59.1679C89.2058 62.0469 87.332 64.889 86.0462 68.0633C85.3481 69.7612 84.65 71.4591 84.5031 73.3784C84.4296 74.5596 84.5031 75.7407 84.3929 76.9218C84.2459 78.6936 84.5398 80.4283 84.8337 82.1262C84.944 82.7906 84.1357 83.3074 84.3194 83.3812C85.2379 83.6395 84.5766 84.1563 84.6133 84.5254C84.6133 84.7469 84.4663 85.0052 84.5398 85.1898C85.3848 88.6963 85.0174 92.2766 85.0909 95.8569C85.1644 99.1419 85.4583 102.501 84.5766 105.749C84.2459 106.93 84.0255 108.148 83.6581 109.329C83.2539 110.732 82.4824 112.061 82.3722 113.537C82.1885 115.604 81.1598 117.339 80.3882 119.221C80.3515 119.221 80.1678 119.295 80.0943 119.332C80.1678 118.262 81.0863 117.45 81.0863 116.305C80.3147 117.966 79.3595 119.517 78.9554 121.325C79.3595 120.661 79.7269 119.996 80.0943 119.332ZM53.3845 22.5897C54.5969 21.8514 55.5521 20.818 56.5074 19.7845C55.5154 20.7441 54.2295 21.4454 53.3845 22.5897C52.5027 22.9219 51.9516 23.6601 51.3271 24.2875C52.1353 23.8815 52.8334 23.3279 53.3845 22.5897ZM65.2147 7.30873C65.3984 7.23491 65.6188 7.23491 65.7658 7.12418C69.9909 4.87264 74.3996 3.06403 79.0656 1.95672C79.2493 1.91981 79.4697 1.91981 79.58 1.66143C79.2493 1.69834 78.9554 1.73525 78.6615 1.80907C74.767 2.47346 71.1665 3.98679 67.6763 5.72158C66.8312 6.20142 65.876 6.53361 65.2147 7.30873C64.186 7.41946 63.5614 8.2684 62.6429 8.63751C62.496 8.71133 62.3123 9.00661 62.5694 9.22808C62.6429 9.3019 62.7531 9.37572 62.8266 9.26499C63.341 8.2684 64.5901 8.19458 65.2147 7.30873ZM37.1822 147.605C37.8436 147.605 38.5049 147.679 39.1662 147.605C41.8482 147.31 44.4935 146.83 47.1387 146.313C51.0699 145.575 54.7071 143.877 58.4178 142.512C60.1446 141.884 61.7612 140.998 62.9368 139.485C66.7945 134.428 69.8806 129.003 72.085 122.986C73.8485 118.188 76.1264 113.611 78.0001 108.849C79.3228 105.454 80.2045 101.91 80.5719 98.2561C80.9026 95.2294 80.7189 92.1659 80.7189 89.1392C80.7189 86.6293 80.6821 84.1194 80.8658 81.6095C80.9761 79.8378 80.5719 77.9922 80.425 76.1836C80.1678 73.0093 80.2045 69.835 81.1598 66.7346C82.0415 63.8925 83.2539 61.1611 84.7603 58.5774C87.8097 53.373 91.5939 48.7592 95.5985 44.2561C97.7294 41.8569 99.8603 39.4208 101.624 36.7264C104.894 31.7804 106.437 26.3176 106.326 20.375C106.216 15.7612 104.196 12.144 100.228 9.70791C93.3206 5.46321 86.0094 4.09752 78.1838 6.68125C72.1218 8.67442 66.721 11.8487 61.7612 15.9089C58.675 18.4188 55.8461 21.2609 52.7967 23.7708C48.6083 27.2035 44.3465 30.5623 39.4234 32.8877C35.6024 34.6963 31.5978 35.9882 27.5564 37.1693C24.1029 38.2028 20.833 39.5685 17.7102 41.3771C14.1464 43.481 11.097 46.1385 9.00284 49.7927C8.74566 50.2356 8.74566 50.2356 8.19456 50.2356C8.01087 50.2356 8.01087 50.3832 7.93739 50.494C7.42303 51.5275 7.05563 52.6348 7.05563 53.8159C7.05563 54.6279 7.34955 55.7722 7.09237 56.1413C6.21062 57.3962 6.87193 58.5774 7.05563 59.6108C7.23933 60.9027 7.60673 62.2315 7.97413 63.5603C8.9661 66.8084 10.105 70.0196 11.7216 73.0093C13.1912 75.7407 14.624 78.509 15.0649 81.6464C15.1751 82.5322 16.2773 83.5657 15.1016 84.5254C15.1016 84.5254 15.1751 84.5992 15.2119 84.673C15.8364 85.6327 16.1304 86.7031 16.1671 87.7735C16.2038 88.807 16.5712 89.8036 16.6447 90.8371C16.7182 92.4981 17.3428 94.159 16.9754 95.8569C16.8284 96.632 16.8652 97.481 16.8652 98.293C16.8652 100.102 16.2406 101.799 16.1671 103.608C16.1304 104.272 15.5425 105.158 15.2119 105.933C14.0362 108.702 11.9788 110.843 10.1785 113.131C8.48848 115.309 6.57801 117.45 6.39432 120.439C6.32084 121.657 5.95344 122.912 6.57801 124.056C8.23131 127.083 9.11306 130.553 11.3909 133.284C13.1544 135.388 14.3668 137.972 16.5345 139.817C18.6654 141.626 20.6861 143.545 23.1109 144.874C24.3233 145.538 25.5357 146.203 26.9319 146.498C30.3119 147.384 33.7287 147.679 37.1822 147.605ZM77.0082 113.943C76.0162 117.339 74.069 120.218 73.077 123.503C74.2894 122.617 77.4858 115.05 77.0082 113.943ZM38.1742 28.237C41.5543 26.6867 44.3832 24.3983 47.102 21.8884C44.273 23.9923 41.4808 26.1331 38.4681 27.9786C38.3579 28.0524 38.2477 28.1262 38.1742 28.237ZM5.76974 45.8432C7.42303 44.0715 9.11306 42.3368 10.8766 40.6758C8.74566 42.0046 7.09237 43.7763 5.76974 45.8432ZM2.83056 121.067C3.2347 119.959 3.49187 118.815 3.82253 117.671C3.16122 118.704 2.79382 119.849 2.83056 121.067ZM4.88799 48.1686C4.81451 47.9102 4.70429 47.7995 4.44711 47.8364C4.04297 47.9102 3.82253 48.1686 3.78579 48.5746C3.78579 48.7961 3.89601 48.833 4.07971 48.7961C4.48385 48.7223 4.66755 48.427 4.88799 48.1686Z" fill="#1E1E1E"/>
<path d="M64.8841 102.722C64.8473 102.464 64.8841 102.242 64.6269 102.132C64.5902 102.501 64.2962 102.87 64.7739 103.202C65.0678 103.387 64.7739 103.719 64.7004 103.94C64.0391 106.007 63.3777 108.111 62.7532 110.215C62.1286 112.208 61.4305 114.164 60.9529 116.194C60.7325 117.228 60.2181 118.151 59.8507 119.11C59.667 119.553 59.5201 119.959 59.5201 120.439C59.5201 121.436 59.4466 121.436 58.5648 120.919C58.4914 120.882 58.3811 120.919 58.2709 120.882C58.2709 120.993 58.2342 121.104 58.2709 121.177C58.8588 122.137 58.7118 123.281 58.0505 124.204C57.6096 124.795 57.2055 125.422 57.0218 126.234C56.7278 127.452 55.9196 128.375 54.9643 129.187C54.8909 129.261 54.6704 129.224 54.6704 129.408C54.6337 130.405 53.8254 130.885 53.2376 131.475C52.6497 132.029 51.9517 132.435 51.4373 133.063C50.5188 134.133 49.4901 135.019 48.2042 135.72C47.6164 136.052 47.0285 136.68 46.3672 136.938C43.9791 137.898 41.6278 138.931 39.203 139.817C35.0881 141.294 31.0467 140.851 27.0054 139.891C24.6173 139.3 22.4496 138.23 20.4657 136.754C19.6942 136.2 19.1063 135.499 18.4817 134.797C16.0937 132.14 14.4404 129.076 13.5954 125.607C13.0443 123.392 13.4117 121.214 14.5138 119.221C14.8078 118.704 15.0282 118.003 16.0202 118.114C16.4611 118.151 16.8652 117.376 17.1959 116.859C19.5472 113.279 21.4577 109.44 23.0007 105.417C24.6173 101.209 26.0501 96.9272 26.5645 92.3872C26.9686 89.1022 26.5278 85.9279 25.7195 82.7536C25.0949 80.2068 23.7723 78.066 22.2659 75.999C21.127 74.4488 20.135 72.8247 18.9961 71.2376C18.592 70.6839 19.1063 70.3148 19.2165 69.6135C18.592 70.4624 18.5185 70.2779 18.2613 69.5766C18.0041 68.8753 17.5265 68.2478 17.1591 67.5834C16.3508 66.1439 15.91 64.5937 15.8732 63.0065C15.8732 62.416 15.5426 61.8992 15.616 61.3086C15.7263 60.5704 15.763 59.8322 15.9834 59.1309C16.3508 57.9129 16.5713 56.5841 17.7837 55.7721C18.1143 55.5506 17.9306 54.8124 18.298 54.4064C19.9146 52.6716 21.4209 50.8261 23.4416 49.5342C28.2178 46.4706 33.2511 43.85 38.5049 41.6723C42.1789 40.159 45.6692 38.2027 48.5349 35.3606C52.7967 31.1897 57.2422 27.2403 61.8347 23.4385C66.2067 19.8582 70.8359 16.7577 76.1999 14.8384C78.441 14.0264 80.7557 13.5465 83.1437 13.3989C86.5238 13.1774 89.0956 14.7277 91.0428 17.3114C94.827 22.2574 95.7087 27.8309 94.2759 33.8473C93.2839 37.8705 91.8511 41.7461 89.8304 45.3633C88.8751 47.0612 87.9566 48.796 86.3768 50.0879C85.642 50.7153 85.2379 51.7488 84.6501 52.5978C82.6661 55.4768 80.1678 57.9129 78.2206 60.7919C77.3389 62.0838 76.6041 63.4125 75.759 64.7413C73.9588 67.5834 72.7096 70.7208 71.387 73.7844C70.2113 76.4788 69.7705 79.4317 69.3296 82.3107C68.852 85.4481 68.3744 88.5855 67.86 91.7229C67.5661 93.5315 67.3456 95.377 66.6843 97.0749C66.2434 98.256 66.2067 99.511 65.6923 100.655C65.325 101.283 65.6556 102.169 64.8841 102.722ZM22.5231 108.739C22.817 108.628 22.8905 108.333 22.964 108.111C23.8825 105.933 24.9112 103.793 25.5358 101.504C25.9032 100.175 26.5278 98.8835 26.5278 97.444C25.8664 99.9908 24.7642 102.353 23.956 104.826C23.5151 106.192 22.7436 107.373 22.5231 108.739C21.4209 110.289 20.8331 112.097 19.9146 113.721C20.8698 112.134 22.0455 110.621 22.5231 108.739ZM23.5518 72.7878C23.5518 72.6771 23.5518 72.4925 23.6253 72.4187C23.7723 72.308 23.809 72.4925 23.9192 72.5663C24.1764 72.8247 24.0662 73.2676 24.3968 73.526C25.0214 74.0427 25.4623 74.6702 25.7562 75.4823C26.0134 76.1466 26.7482 76.6634 27.2258 77.254C27.336 77.4016 27.483 77.6231 27.336 77.8076C27.0789 78.1767 27.2993 78.2875 27.5932 78.3613C27.9606 78.472 28.1443 78.7304 28.2545 79.0626C28.6954 80.2068 29.2832 81.2772 29.4302 82.5322C29.5037 83.3442 29.6506 84.3039 29.9446 84.8944C30.7896 86.5185 30.7896 88.2533 30.7161 89.9142C30.6426 91.3907 30.3487 92.9409 30.4222 94.4173C30.4956 95.7092 29.8343 96.7427 29.6506 97.9607C29.4302 99.4002 28.4382 100.692 28.2178 102.205C28.1076 103.128 27.1156 103.829 27.1156 104.568C27.1523 106.266 25.646 107.188 25.3888 108.702C25.3153 109.182 25.0949 109.92 24.6908 110.4C23.809 111.359 23.5886 112.651 22.6701 113.611C21.5311 114.792 20.9433 116.416 19.7309 117.597C18.9961 118.298 18.445 119.221 17.8204 120.033C17.2326 120.771 17.3061 121.916 17.1224 122.912C16.8652 124.315 17.6735 125.422 18.0409 126.677C18.9226 129.667 20.7229 132.103 22.8538 134.096C27.0054 137.972 32.002 139.264 37.5497 137.233C38.1008 137.012 38.6886 136.827 39.2397 136.643C42.583 135.536 45.4487 133.653 48.1307 131.402C51.621 128.412 53.2743 124.278 55.2215 120.328C55.8828 118.963 56.1768 117.265 56.6911 115.752C57.0585 114.718 57.4259 113.648 57.6463 112.577C57.9035 111.507 58.2342 110.436 58.5281 109.403C58.8588 108.333 59.2996 107.336 59.5568 106.266C59.7772 105.306 60.2549 104.457 60.4386 103.497C60.6957 102.169 61.1366 100.877 61.4673 99.5479C62.7532 94.8233 63.7084 90.025 64.2962 85.1897C64.6269 82.4952 64.8473 79.7639 65.3984 77.1432C67.1987 68.58 71.1298 61.0134 76.5306 54.2218C78.9554 51.1952 81.4904 48.2793 84.0255 45.3264C87.6627 41.1186 89.6099 36.0988 91.0795 30.8206C91.998 27.5356 91.8511 24.3244 90.6386 21.1501C89.9406 19.3415 88.9486 17.8281 86.781 17.4959C84.797 17.1637 82.8498 17.6436 80.9394 17.9758C79.8004 18.1972 78.588 18.714 77.4858 19.2676C74.7671 20.5964 72.0483 21.8145 69.697 23.7338C69.1459 24.1767 68.4478 24.2505 67.8967 24.6935C67.1987 25.284 66.6843 26.0592 65.9128 26.5759C65.4719 26.8712 64.9208 26.9081 64.5167 27.2772C61.9082 29.7133 58.9322 31.7434 56.5809 34.4747C55.7726 35.4344 54.7439 36.2095 53.8621 37.0954C50.5188 40.4173 46.5877 42.8903 42.1789 44.5144C36.7782 46.5076 31.7448 49.1651 27.0421 52.4501C25.2419 53.7051 23.2947 54.8862 22.0088 56.7687C21.274 57.876 20.282 58.9833 20.1718 60.2382C19.9881 62.1207 19.8044 64.04 20.429 65.9225C20.5759 66.3654 20.3187 66.9929 20.3922 67.1405C20.7596 67.7311 20.98 68.3955 21.3842 68.9491C22.2292 70.1302 23.4049 71.1637 23.5518 72.7878ZM60.6957 106.229C59.667 108.296 59.0057 110.547 58.4179 112.762C57.7933 115.05 56.9483 117.228 56.2135 119.48C55.5154 121.583 54.5235 123.613 53.6417 125.644C57.3524 119.627 58.7118 112.836 60.6957 106.229ZM62.2021 24.7304C66.5374 21.2977 71.0931 18.2711 76.1999 16.1302C72.8566 16.5732 63.5982 22.7003 62.2021 24.7304ZM23.6253 50.7523C21.0168 52.524 18.7022 54.554 17.6 57.6545C19.3635 55.1446 21.3474 52.8192 23.6253 50.7523ZM15.2486 119.738C14.1465 120.845 13.6321 124.278 14.3669 124.979C14.5873 123.207 14.5873 121.436 15.2486 119.738ZM58.675 27.8678C58.6016 27.794 58.5281 27.7201 58.4546 27.6463C56.5809 29.3811 54.5235 30.9313 52.8702 32.9614C54.8174 31.2266 56.7278 29.5657 58.675 27.8678ZM46.2203 38.7564C48.3879 37.5014 50.1147 35.7297 51.768 33.8842C49.8942 35.5082 48.094 37.1692 46.2203 38.7564Z" fill="#1E1E1E"/>
<path d="M70.3582 55.1076C70.7256 55.6982 70.5787 56.1042 70.3582 56.6948C69.7704 58.1343 68.5947 59.2416 68.3743 60.8288C68.3008 61.3824 67.8599 61.8253 67.566 62.3052C66.868 63.5232 66.7577 64.9627 66.1332 66.1439C65.5453 67.2881 65.2882 68.5061 64.7003 69.6135C64.3697 70.204 64.4799 70.9422 64.0757 71.4959C63.7818 71.865 63.1205 74.2642 63.0103 74.7071C62.8266 75.8513 62.5694 76.9955 62.349 78.1398C62.3122 78.3243 62.2388 78.5458 61.9448 78.5089C61.6509 78.472 61.5407 78.5827 61.6509 78.8411C62.0551 79.7638 61.5774 80.5759 61.21 81.3141C60.1813 83.418 59.2996 85.5957 58.3811 87.7365C58.1974 88.1794 57.3891 88.0318 57.683 88.8807C57.83 89.3236 57.3524 90.0618 57.0217 90.6155C56.691 91.1692 56.4706 91.7597 56.1767 92.3134C54.009 96.4474 52.0251 100.692 50.1514 104.974C49.1227 107.336 47.8735 109.624 46.7713 111.987C46.4774 112.577 46.2937 113.242 46.11 113.869C45.9263 114.46 45.6691 115.272 44.9711 115.641C44.8241 115.715 44.7506 115.752 44.7139 115.899C43.8321 118.631 41.5175 120.07 39.4234 121.694C37.9538 122.838 36.1168 123.54 34.4267 124.315C33.398 124.795 32.4061 125.607 31.1936 125.754C29.9812 125.939 28.7688 126.16 27.5197 126.16C26.3072 126.197 25.2051 125.902 24.2131 125.201C23.6987 124.831 23.6252 124.389 23.8457 123.798C24.3968 122.358 25.2418 121.14 26.5644 120.292C27.0788 119.959 27.5931 119.664 27.9238 119.147C28.1442 118.778 28.5484 119.258 28.9893 118.815C30.5691 117.265 31.5243 115.382 32.5163 113.5C34.5737 109.587 36.1535 105.454 37.6231 101.32C38.2844 99.5109 38.6151 97.6285 38.909 95.7461C39.0927 94.5649 39.2029 93.3469 39.3131 92.1657C39.3499 91.6121 39.5703 91.1692 40.2684 91.5014C40.6725 91.6859 40.7827 91.3906 41.0032 91.2061C41.1501 91.0584 41.1134 90.8739 40.9664 90.7631C40.746 90.5417 40.5255 90.7631 40.3418 90.8739C39.5703 91.243 39.3499 91.0215 39.3866 90.1726C39.4968 87.8841 39.5336 85.5588 38.9457 83.3072C38.6518 82.163 38.2477 81.0926 37.6966 80.0591C36.1168 77.0694 34.0593 74.3749 32.2591 71.5328C30.9365 69.4658 29.5771 67.3619 29.2832 64.8151C29.2097 64.2245 28.7321 63.4863 29.5771 63.0065C29.6138 62.9696 29.6506 62.8958 29.6506 62.8588C29.5036 60.5335 29.5771 60.4597 31.1569 58.8356C32.1856 57.7652 33.4348 57.027 34.6839 56.4364C39.3499 54.2956 43.281 51.1213 47.1387 47.7625C51.8414 43.6654 56.1032 39.0885 60.9896 35.2498C66.3169 31.0051 72.4524 28.1261 78.9186 26.1329C82.3354 25.0625 84.8705 27.6463 84.1357 31.2266C83.4009 34.8069 82.0415 38.1288 80.2412 41.3031C78.1838 44.9573 75.8325 48.3899 73.5546 51.8964C72.93 52.8561 72.4157 53.8896 71.6441 54.7754C71.3135 55.2553 71.0196 55.6613 70.3582 55.1076ZM34.7207 111.359C35.0146 111.322 35.0881 111.101 35.1983 110.916C36.5209 108.333 37.4761 105.564 38.6886 102.944C39.2764 101.689 39.056 100.138 40.0112 99.0311C40.1581 98.8465 40.1214 98.662 39.901 98.5512C39.607 98.4036 39.4233 98.6251 39.3866 98.8834C39.2397 99.8431 38.7988 100.692 38.4681 101.578C37.6598 103.903 36.9618 106.229 35.8596 108.443C35.4187 109.329 34.9044 110.289 34.7207 111.359C33.9491 112.466 33.3613 113.648 32.8837 114.939C33.4715 113.721 34.537 112.762 34.7207 111.359ZM60.6222 41.7461C59.4465 42.2628 58.8587 43.407 58.0137 44.2929C56.9115 44.9573 56.2869 46.1015 55.2949 46.8766C53.6049 48.2423 51.8414 49.5342 50.2616 51.0106C46.955 54.0741 43.3178 56.5471 39.3131 58.5034C37.8068 59.2416 36.08 59.3893 34.7941 60.6442C34.0226 61.4193 33.0674 62.0468 32.9939 63.2279C32.8837 64.9996 33.1776 66.7344 34.0226 68.3585C35.6024 71.3113 37.7333 73.932 39.607 76.7003C41.5543 79.5793 43.281 82.5321 43.7219 86.1124C44.126 89.5451 43.9056 92.9409 43.6852 96.3735C43.6484 97.0748 43.1708 97.7392 43.1708 98.5143C43.1341 99.6217 43.1341 100.877 42.436 101.799C41.1501 103.46 40.746 105.454 39.901 107.299C39.6438 107.89 39.7907 108.775 39.2764 109.255C38.5783 109.883 38.3946 110.695 38.064 111.433C37.917 111.728 37.7333 112.024 37.5129 112.282C36.7413 113.057 36.2637 114.054 35.7494 114.903C34.7207 116.6 33.545 118.114 32.0754 119.443C31.6713 119.812 30.9732 119.775 30.7528 120.365C30.4956 120.956 30.018 121.399 29.5403 121.805C29.026 122.211 28.8056 122.765 28.5851 123.429C28.9525 123.54 29.173 123.392 29.4301 123.281C30.9365 122.728 32.2224 121.731 33.6919 121.067C36.2637 119.885 38.3946 118.188 40.1214 115.936C41.4073 114.238 42.2523 112.319 43.1708 110.436C44.9711 106.672 46.8448 102.944 48.5348 99.1418C49.4901 97.001 50.482 94.8971 51.5475 92.8301C53.311 89.3605 54.8541 85.8171 56.3971 82.2737C57.6095 79.4316 58.6383 76.4788 59.2996 73.4521C59.8874 70.7946 60.8794 68.2847 61.8714 65.7379C63.7451 60.9395 65.6556 56.1411 68.7417 51.9333C71.4972 48.1685 74.3261 44.4036 76.8244 40.4542C78.6982 37.5014 80.3147 34.4378 81.123 30.9682C81.1965 30.5991 81.4904 30.1193 81.1597 29.8609C80.9026 29.6394 80.4617 29.9347 80.131 30.0824C76.604 31.4849 73.2607 33.1459 69.9908 35.0284C69.403 35.3605 68.8887 36.1357 67.9702 35.7666C67.8599 35.7297 67.566 35.8773 67.6395 36.0618C67.8967 36.6155 67.3823 36.6155 67.1619 36.7262C65.876 37.5752 64.5901 38.461 63.3409 39.3469C62.2755 40.0113 61.5774 41.0448 60.6222 41.7461ZM41.591 115.604C42.2891 114.46 43.1341 113.426 43.7219 112.171C45.0078 109.329 46.5141 106.561 47.7633 103.682C49.6003 99.4002 51.5475 95.1555 53.7886 91.0584C53.9356 90.8001 54.0458 90.5417 53.6784 90.1726C49.1961 98.5143 45.963 107.336 41.591 115.604ZM60.365 37.3168C62.9735 35.3975 65.6556 33.5519 68.5213 32.0386C71.4237 30.4884 74.3996 29.0489 77.3755 27.6832C71.3135 30.1562 65.2882 32.7768 60.365 37.3168ZM52.319 44.9942C52.2455 44.9204 52.2088 44.8465 52.1353 44.7358C49.3431 47.135 46.5876 49.5711 43.7954 51.9703C43.8689 52.0441 43.9056 52.1179 43.9791 52.1917C46.7713 49.7925 49.5635 47.3934 52.319 44.9942ZM34.6839 57.6545C32.5898 58.0605 30.4588 60.0167 30.6793 61.3455C31.6713 59.6845 33.1408 58.6141 34.6839 57.6545ZM53.8253 89.8404C53.9356 89.8773 54.009 89.9511 54.1193 89.988C54.4499 89.1391 55.3684 88.5116 54.9275 87.3674C54.5601 88.1794 54.1927 89.0284 53.8253 89.8404Z" fill="#1E1E1E"/>
<path d="M60.6222 41.7461C60.0344 42.8903 59.1159 43.6654 58.0137 44.2929C58.8587 43.4071 59.4465 42.2628 60.6222 41.7461Z" fill="#1E1E1E"/>
</svg>
