<svg width="34" height="80" viewBox="0 0 34 80" fill="none" xmlns="http://www.w3.org/2000/svg">
<path d="M7.49907 44.6007C7.58545 44.6871 7.64304 44.7159 7.70063 44.7735C7.78701 44.4855 7.78701 44.2264 7.55666 43.996C7.70063 43.996 7.75821 43.996 7.8158 43.996C7.84459 43.9672 7.90218 43.9097 7.90218 43.8809C7.84459 43.6217 7.95977 43.3626 8.07494 43.161C8.21891 42.9307 8.47805 42.7579 8.39167 42.4124C8.39167 42.3836 8.39167 42.3548 8.39167 42.326C8.88115 41.9805 8.93874 41.3183 9.34185 40.9151C9.48581 40.7712 9.48581 40.9727 9.62978 41.0015C9.68737 40.4257 9.60099 39.7922 10.1481 39.2739C10.1481 39.2739 10.292 39.2451 10.4072 39.2451C10.4936 39.2163 10.4648 39.1875 10.4072 39.13C10.2344 38.986 10.2344 38.7844 10.3784 38.6693C10.7815 38.2374 10.9255 37.6903 11.1846 37.2008C11.6453 36.2794 12.2212 35.4444 12.7395 34.5518C13.2577 33.6592 13.8048 32.7954 14.3807 31.9316C15.1293 30.8087 15.8779 29.6569 16.6554 28.5628C17.1736 27.843 17.6919 27.1231 18.1526 26.3745C18.6133 25.6547 19.1892 25.0212 19.6787 24.3302C20.2545 23.524 20.9168 22.7753 21.4639 21.9403C21.723 21.5084 22.1549 21.1917 22.4428 20.7886C23.5658 19.2337 24.9766 17.938 26.3299 16.5847C26.5603 16.3544 26.8194 16.0665 27.2801 16.0953C27.1362 16.5272 26.9922 16.9015 26.6755 17.1894C26.2148 17.6213 25.7829 18.082 25.351 18.5139C25.1206 18.7443 24.8615 18.917 24.6887 19.1762C24.516 19.4353 24.2856 19.6081 24.1128 19.8672C23.9401 20.1263 23.7385 20.3279 23.537 20.5582C23.2203 20.9901 22.8459 21.3644 22.4716 21.7676C22.0109 22.2858 21.6942 22.8905 21.2623 23.4088C20.8016 23.9271 20.4273 24.5317 19.9954 25.0788C19.8514 25.2516 19.6499 25.3667 19.6787 25.6547C19.6787 25.7698 19.5059 25.9138 19.3907 26.0002C18.9876 26.3457 18.7285 26.8352 18.4406 27.2671C18.1526 27.7278 17.8647 28.1885 17.548 28.6204C16.6842 29.9161 15.8491 31.2118 14.9566 32.4787C14.3807 33.2849 14.0064 34.2063 13.4017 34.9837C13.4017 35.358 12.9698 35.4444 12.8834 35.7899C12.8258 36.0491 12.7107 36.337 12.4803 36.5673C12.3076 36.7401 12.106 36.9129 12.0196 37.1432C11.9045 37.4024 11.8181 37.6327 11.6741 37.863C11.5301 38.0934 11.415 38.3525 11.2422 38.5541C11.0695 38.7556 11.0119 39.0436 10.8391 39.2451C10.7527 39.3603 10.8103 39.5906 10.6088 39.5906C10.4072 39.5906 10.3784 39.7058 10.4072 39.8498C10.4648 40.1089 10.2632 40.3105 10.1769 40.5408C10.0617 40.5984 9.91772 40.4832 9.77375 40.6272C10.0329 41.0879 9.5722 41.4622 9.60099 41.8941C9.1403 41.9805 9.31305 42.47 9.1115 42.7003C8.88115 42.9595 8.93874 43.305 8.73719 43.5641C8.42046 43.996 8.2477 44.5143 8.04615 45.0038C7.8158 45.4645 7.61425 45.9252 7.35511 46.3571C7.23993 46.5299 7.26873 46.6162 7.44149 46.789C6.89441 47.0193 7.18235 47.8543 6.4913 47.9983C6.54889 48.0847 6.63527 48.1711 6.63527 48.2287C6.46251 48.7181 6.37613 49.2076 6.11699 49.6683C5.91544 50.0138 5.71388 50.417 5.71388 50.8201C5.71388 51.0216 5.59871 51.1944 5.51233 51.2808C5.02284 51.9718 4.96526 52.778 4.7637 53.5554C4.59094 54.1601 4.3606 54.7648 4.18784 55.3406C3.92869 56.0892 3.64076 56.8091 3.49679 57.5865C3.41041 58.0472 3.18007 58.5079 3.06489 58.9686C2.97851 59.3141 2.80575 59.6308 2.86334 59.9764C2.92093 60.2355 2.63299 60.4083 2.66179 60.6962C2.66179 60.8114 2.46023 61.0129 2.54661 61.1569C2.66179 61.3584 2.20109 61.416 2.48903 61.5888C2.37385 61.9343 2.34506 62.3086 2.14351 62.5965C1.85557 63.086 1.88437 63.6331 1.7404 64.1514C1.51005 64.9864 1.59643 65.879 1.25091 66.714C1.39488 67.0883 0.934185 67.4626 1.25091 67.8369C1.33729 67.9233 1.10695 68.0673 1.07815 68.24C0.962978 69.1326 0.732631 70.0252 0.790218 70.9466C0.790218 71.1482 0.531078 71.3209 0.761425 71.5225C0.502284 71.724 0.646251 72.012 0.617458 72.2423C0.588664 72.4727 0.703838 72.7606 0.588664 72.9334C0.329524 73.3941 0.703838 73.7972 0.617458 74.2291C0.531078 74.6034 0.703838 75.0065 0.444698 75.352C0.415904 75.4096 0.415904 75.5248 0.444698 75.5824C0.703838 75.8703 0.617458 76.2158 0.588664 76.5325C0.531078 77.0796 0.819011 77.5691 0.761425 78.1162C0.761425 78.1738 0.905391 78.2601 1.02056 78.3753C1.02056 77.857 1.19333 77.3675 0.934185 76.8781C0.876598 76.7629 0.905391 76.5901 0.905391 76.4174C0.905391 75.496 0.934185 74.5746 0.905391 73.682C0.905391 73.2789 1.13574 72.9046 1.07815 72.5015C1.02056 72.1272 0.962978 71.6665 1.10695 71.3497C1.25091 70.9754 1.10695 70.5723 1.27971 70.2556C1.45247 69.9101 1.3085 69.5358 1.39488 69.1902C1.56764 68.4704 1.53885 67.693 1.71161 66.9731C1.85557 66.3685 1.94195 65.7638 2.11471 65.188C2.14351 65.044 1.88437 64.9864 2.11471 64.8424C2.25868 64.7561 2.14351 64.5545 2.1723 64.4105C2.1723 64.2666 2.37385 64.2378 2.34506 64.0938C2.28747 63.921 2.48903 63.8059 2.48903 63.6907C2.51782 63.3164 2.57541 62.9421 2.63299 62.5678C2.77696 61.8479 2.97851 61.1281 3.15127 60.4083C3.49679 60.1779 3.15127 59.7748 3.41041 59.4869C3.61197 59.2853 3.55438 58.911 3.61197 58.6231C3.84231 57.6729 4.10146 56.7515 4.41818 55.8301C4.64853 55.1967 4.93646 54.5632 5.02284 53.8722C5.05164 53.5842 5.2244 53.2675 5.36836 53.0084C5.74268 52.2021 5.94423 51.3671 6.23216 50.5321C6.37613 50.129 6.57768 49.7835 6.75044 49.4092C7.00958 48.7757 7.12476 48.1135 7.49907 47.5088C7.72942 47.1345 7.72942 46.5874 8.13253 46.2707C7.95977 45.8388 8.42046 45.6085 8.47805 45.2341C8.53563 44.8598 8.82357 44.5431 8.93874 44.1688C9.05391 43.8233 9.22667 43.5065 9.39944 43.1898C9.5722 42.8731 9.77375 42.5564 9.94651 42.2396C10.0617 42.2396 10.1481 42.2396 10.3208 42.2396C10.2632 42.0669 10.1193 41.8941 10.1769 41.7214C10.2344 41.6062 10.3496 41.635 10.436 41.6062C10.4648 41.5486 10.4936 41.5198 10.4936 41.4622C10.4936 40.9151 10.6951 40.4257 10.9831 40.0225C11.5014 39.3027 11.7893 38.4965 12.1924 37.7767C12.6819 36.9129 13.229 36.0491 13.6896 35.1853C14.2367 34.1487 14.9566 33.1985 15.5324 32.1908C15.9067 31.4709 16.425 30.8375 16.8857 30.1464C17.4616 29.2826 18.095 28.4476 18.6421 27.5838C19.1028 26.864 19.6211 26.2305 20.1106 25.5395C20.6001 24.8484 21.0607 24.1286 21.6366 23.4952C22.1261 22.9193 22.5292 22.2858 22.9899 21.71C23.4794 21.0477 24.0265 20.4431 24.516 19.752C24.8327 19.3201 25.207 18.8594 25.6101 18.4563C26.3011 17.7653 26.9634 17.0742 27.6544 16.412C27.7408 16.3256 27.7984 16.1816 28 16.2104C28.2015 16.412 28.0863 16.6135 27.9136 16.8151C28.2879 16.9015 28.3167 16.5272 28.5758 16.5272C28.7198 16.556 28.7486 16.6999 28.8638 16.7575C28.6046 16.8439 28.9213 17.0454 28.7774 17.1318C28.6334 17.247 28.7486 17.4486 28.547 17.5061C28.5758 17.6789 28.7774 17.5349 28.8638 17.7653C28.6334 18.082 28.3743 18.4275 28.0863 18.773C27.8848 19.0034 27.6544 19.2049 27.5105 19.4929C27.3953 19.7232 27.0498 19.8384 27.1074 20.1839C27.1074 20.2415 26.9922 20.2415 26.9346 20.2991C26.5603 20.5582 26.2148 21.0765 26.0132 21.5948C25.898 21.8827 25.6965 22.1419 25.5237 22.401C25.207 22.8329 24.8327 23.2648 24.5447 23.7255C24.4872 23.8119 24.4008 23.8407 24.3144 23.8983C23.9113 24.1286 23.6234 24.4453 23.5082 24.9348C23.4506 25.194 23.3642 25.2516 23.0763 25.5395C22.9323 25.6835 22.8171 25.8562 22.7308 26.0002C22.2701 26.6336 21.867 27.3247 21.4063 27.9581C21.1183 28.3324 21.1471 28.8795 20.7152 29.1674C20.8016 29.513 20.4561 29.6281 20.3121 29.8585C19.9666 30.4056 19.4771 30.9238 19.3044 31.5573C19.2468 31.7876 18.8437 31.6437 18.9588 31.9604C18.5845 32.4787 18.383 33.0833 18.0087 33.6016C17.8647 33.8032 17.6055 33.9759 17.5768 34.1775C17.5192 34.6094 16.9721 34.811 17.0585 35.3004C16.6266 35.502 16.6266 35.9339 16.4538 36.2794C16.3386 36.5673 16.0219 36.7113 15.9643 37.0856C15.9355 37.4024 15.6764 37.6903 15.5036 37.9782C15.3309 38.2662 15.0717 38.5253 15.0141 38.8708C14.611 38.9284 14.611 39.3315 14.4959 39.5906C14.3519 39.8786 14.1215 40.1089 14.1215 40.4544C14.1215 40.7136 13.6609 40.656 13.8048 41.0303C13.8912 41.2607 13.6321 41.4334 13.5457 41.635C13.4593 41.8365 13.4593 42.0957 13.1138 42.0957C13.0274 42.0957 12.9122 42.2396 12.8546 42.3548C12.5955 42.7579 12.5667 43.3338 12.0772 43.5929C12.106 43.8809 11.8469 44.1112 11.8181 44.3416C11.7605 45.119 11.271 45.6948 10.9543 46.3571C10.7239 46.8466 10.6951 47.4224 10.2344 47.7968C10.3208 48.1999 9.91772 48.459 9.88892 48.8333C9.83134 49.2652 9.48581 49.5532 9.42823 49.9851C9.37064 50.3882 9.1115 50.7337 8.96753 51.1368C8.93874 51.1944 8.85236 51.252 8.76598 51.3383C8.96753 52.0294 8.21891 52.5765 8.33408 53.3827C8.47805 53.0659 8.59322 52.8644 8.73719 52.5477C8.76598 53.2675 8.36287 53.757 8.2477 54.3041C8.13253 54.8511 7.84459 55.3982 7.67183 55.9453C7.47028 56.4924 7.21114 57.0106 7.09597 57.5865C6.952 58.1624 6.69286 58.6806 6.57768 59.2565C6.46251 59.8324 6.23216 60.3795 6.0594 60.9553C5.94423 60.9553 5.82906 60.9841 5.71388 60.9841C5.39716 61.3872 5.56992 61.9055 5.33957 62.3086C5.31078 62.3662 5.36836 62.4814 5.33957 62.539C4.99405 62.9709 5.08043 63.5179 4.87888 64.0074C4.64853 64.4969 4.7637 65.044 4.56215 65.5335C4.3318 66.1093 4.3318 66.7428 4.13025 67.3187C4.01508 67.6066 4.18784 67.9809 3.92869 68.2688C4.01508 68.7295 3.84231 69.1614 3.75593 69.6221C3.69835 70.0252 3.58317 70.3996 3.61197 70.8027C3.23765 71.0906 3.66955 71.6089 3.29524 71.9256C3.23765 71.9832 3.29524 72.1272 3.29524 72.2423C3.35283 72.9046 3.15127 73.538 3.06489 74.1715C3.0361 74.373 3.23765 74.517 3.15127 74.7186C2.83455 75.5248 3.06489 76.3598 2.97851 77.166C2.94972 77.5115 3.0361 77.7994 3.20886 78.0874C3.23765 78.0586 3.29524 78.0298 3.32403 78.001C3.75593 78.1162 3.84231 78.4617 3.75593 78.8072C3.66955 79.0951 3.35283 79.0664 3.09369 79.0376C2.94972 79.2967 2.83455 79.6134 2.46023 79.5271C2.22989 79.4695 2.08592 79.6134 1.88437 79.6998C1.68281 79.5846 1.51005 79.4119 1.3085 79.3831C0.876598 79.3543 0.675045 79.0664 0.502284 78.7496C0.329524 78.4329 0.243144 78.0874 0.156764 77.7131C-0.0735831 76.7053 0.0415904 75.7263 0.0127971 74.7186C-0.0159963 73.7108 0.0127971 72.7318 0.0127971 71.724C0.0127971 71.3785 0.243144 71.0618 0.185557 70.6875C0.156764 70.342 0.0415904 69.9677 0.329524 69.6509C0.214351 69.0751 0.559871 68.5568 0.502284 67.9809C0.444698 67.2611 0.646251 66.5412 0.819011 65.8502C0.847805 65.7062 0.847805 65.5047 0.905391 65.3895C0.991772 65.2167 0.991772 65.0152 0.962978 64.8712C0.905391 64.5545 1.10695 64.2954 1.16453 64.0074C1.19333 63.6907 1.3085 63.4028 1.27971 63.1148C1.42367 62.9997 1.53885 63.086 1.59643 62.8845C1.33729 62.5965 1.45247 62.2798 1.56764 61.9055C1.79799 61.1857 1.97075 60.437 2.05713 59.6596C2.08592 59.4293 2.1723 59.1989 2.25868 58.9686C2.46023 58.3927 2.66179 57.8168 2.69058 57.1258C2.77696 57.0682 2.89213 56.9818 2.97851 56.9243C3.00731 56.7515 2.80575 56.7803 2.89213 56.6363C3.00731 56.3484 3.18007 56.0605 3.15127 55.7149C3.15127 55.6573 3.15127 55.6286 3.18007 55.571C3.23765 55.427 3.61197 55.3982 3.32403 55.1391C3.61197 55.0239 3.38162 54.7072 3.58317 54.5344C3.69835 54.4192 3.72714 54.1601 3.75593 53.9873C3.78473 53.7858 3.9287 53.6418 3.95749 53.4403C3.98628 53.0372 4.41818 52.7492 4.24542 52.3461C4.30301 52.2021 4.44698 52.2597 4.53336 52.2021C4.47577 51.943 4.67732 51.2232 4.93646 50.8489C4.99405 50.8777 5.08043 50.9064 5.16681 50.964C5.1956 50.9064 5.2244 50.8489 5.2244 50.8201C5.13802 50.5897 4.93646 50.3882 5.1956 50.1578C5.2244 49.6107 5.48354 49.1213 5.71388 48.6606C5.91544 48.2575 6.03061 47.8543 6.14578 47.4224C6.26096 47.0193 6.63527 46.7314 6.63527 46.2995C7.06717 45.7524 7.06717 45.0902 7.49907 44.6007ZM11.9045 42.8443C11.7605 42.7003 12.0772 42.7291 11.9333 42.5852C11.7893 42.47 11.8757 42.2972 11.8181 42.1533C11.7893 42.0957 11.7605 42.0669 11.7029 42.1245C11.5877 42.2972 11.7605 42.5276 11.6165 42.7003C11.5301 42.7291 11.4438 42.7291 11.3862 42.7579C11.4726 43.0171 11.7893 43.1034 11.8469 43.3338C11.7317 43.7369 11.4438 43.6505 11.1558 43.6793C11.127 43.6793 11.0982 43.7369 11.0694 43.7657C11.1846 43.9097 11.3862 43.7369 11.4726 43.8521C11.7029 44.1976 11.2422 44.0824 11.2422 44.3703C11.2422 44.3416 11.415 44.3128 11.3286 44.4279C11.2134 44.5143 11.0119 44.3704 10.8967 44.5431C11.0119 44.975 10.8967 45.2917 10.4648 45.8388C10.4936 45.8676 10.5512 45.9252 10.58 45.954C10.5224 46.098 10.3208 45.9828 10.2632 46.1267C10.2056 46.2707 10.3784 46.3283 10.4072 46.4435C9.9753 47.1633 9.9753 47.1633 9.94651 47.5952C9.77375 47.7392 9.51461 47.9407 9.28426 48.1423C9.16909 48.3726 9.42823 48.4878 9.45702 48.6318C9.22668 48.8333 9.02512 49.0925 9.02512 49.4092C9.02512 49.6395 8.90995 49.7835 8.85236 49.9851C8.70839 50.417 8.53563 50.8489 8.39167 51.2808C8.36287 51.3671 8.33408 51.4823 8.50684 51.5111C8.65081 51.2808 8.76598 51.0792 8.85236 50.7913C9.02512 50.2154 9.22667 49.6395 9.48581 49.0925C9.74496 48.5454 9.83134 47.9407 10.2344 47.4512C10.3208 47.3361 10.3784 47.1345 10.436 46.9905C10.7239 46.1267 11.1558 45.2917 11.5589 44.4855C11.7893 44.0248 12.106 43.6217 12.1348 43.0746C12.1348 43.0171 12.106 42.9883 12.106 42.9307C12.0196 42.9019 11.9333 42.8443 11.9045 42.8443Z" fill="#1E1E1E"/>
<path d="M13.085 21.5086C13.1138 21.8254 12.7683 22.1133 12.9986 22.43C13.2002 22.5164 13.2578 22.3149 13.4017 22.2285C13.3729 21.7678 13.5457 21.3935 13.776 20.9904C14.0064 20.5873 14.3519 20.2705 14.5247 19.8098C14.6974 19.3779 15.0142 19.0036 15.2733 18.6293C15.5324 18.2262 15.8204 17.8519 16.0795 17.4776C16.2811 17.1608 16.4826 16.8441 16.713 16.5562C17.2888 15.8939 17.7783 15.1741 18.3254 14.4831C18.6133 14.1087 18.9301 13.8208 19.218 13.4465C19.7075 12.813 20.3121 12.2948 20.8016 11.6613C21.3199 10.9991 21.9822 10.452 22.5292 9.78974C23.7386 8.32128 25.1782 7.08317 26.5027 5.70109C26.7043 5.47074 26.9346 5.26919 27.165 5.03884C27.6257 4.54935 28.0863 4.00228 28.7486 3.77193C29.0077 3.68555 28.8926 3.39762 29.1517 3.25365C29.3821 3.13848 29.6412 2.90813 29.8427 2.64899C30.0155 2.38985 30.3034 2.21709 30.5338 2.01554C30.7929 1.7564 31.1097 1.52605 31.3976 1.26691C31.6855 1.23811 32.0022 1.18053 32.2902 1.15173C32.3478 1.15173 32.3766 1.06535 32.4054 1.00777C32.3478 0.863801 32.0886 1.03656 32.1174 0.719834C32.319 0.460694 32.5781 0.17276 33.01 0C33.0964 0.0287934 33.0388 0.17276 33.0676 0.230347C33.1252 0.287934 33.2404 0.34552 33.0964 0.460694C32.9524 0.575867 33.1828 0.604661 33.1828 0.691041C33.01 0.863801 32.7797 0.691041 32.6069 0.777421C32.3766 1.00777 32.7797 1.06535 32.6933 1.26691C32.5493 1.41087 32.319 1.49725 32.0886 1.58364C32.0886 1.67002 32.0886 1.78519 32.0886 1.87157C31.7143 2.27468 31.0809 2.36106 30.9081 2.93692C30.8217 3.22486 30.4186 3.13848 30.3322 3.484C30.2746 3.71434 29.9579 3.77193 29.7276 3.8871C29.5836 3.9159 29.5548 3.77193 29.4396 3.74314C29.2669 4.03107 29.6124 4.08866 29.6988 4.29021C29.5836 4.40539 29.4396 4.54935 29.3245 4.66453C29.2669 4.60694 29.2093 4.57815 29.1517 4.52056C29.0077 4.69332 28.7198 4.66453 28.6046 4.89487C28.547 5.06763 28.6622 5.12522 28.7486 5.2116C28.6622 5.29798 28.6046 5.35557 28.5183 5.44195C28.4607 5.38436 28.4031 5.35557 28.3455 5.29798C28.2303 5.70109 28.2303 5.70109 27.9136 6.04661C27.712 6.04661 27.9136 5.72988 27.5393 5.75867C27.3377 5.84505 27.5105 6.42092 27.0498 6.42092C27.1074 6.5073 27.165 6.56489 27.2513 6.70885C26.9634 6.9392 26.7331 7.22713 26.4739 7.45748C26.1572 7.68783 26.0132 8.03335 25.6965 8.2637C25.5813 8.2637 25.4086 8.2637 25.207 8.2637C25.207 8.52284 24.8903 8.63801 24.8615 8.86836C24.7463 9.64578 24.1129 10.0201 23.6234 10.452C23.4506 10.6248 23.1915 10.7111 23.1339 10.9703C23.1051 11.0567 23.0763 11.1142 22.9899 11.1142C22.5868 11.1142 22.3853 11.3446 22.3565 11.7189C22.3277 11.9205 22.2125 12.0356 22.011 12.0356C21.6654 12.0356 21.5791 12.3236 21.4351 12.4675C21.4351 12.7555 21.6942 12.5827 21.7518 12.7555C21.5503 12.7843 21.5503 13.2162 21.2047 12.9858C21.1759 12.9858 21.0032 13.101 21.0032 13.1874C21.0032 13.4753 20.888 13.6768 20.6577 13.8208C20.7152 14.1951 20.4273 14.3967 20.197 14.5694C19.909 14.8286 19.7075 15.1741 19.5059 15.462C19.2468 15.8363 18.9589 16.1531 18.5557 16.3834C18.4406 16.441 18.3542 16.5562 18.2678 16.6138C18.2966 16.9305 18.239 17.1321 18.0663 17.3624C17.4616 18.111 16.8569 18.8597 16.3962 19.7235C16.2523 20.0114 15.9643 20.1266 15.6764 20.1554C15.4749 20.1841 15.4173 20.3281 15.3309 20.3857C15.5036 20.8752 14.9566 21.2207 15.1869 21.6526C14.9566 21.7966 14.7838 21.6814 14.5823 21.7678C14.4671 22.1709 14.3519 22.6316 14.2079 23.0635C14.2655 23.2075 14.4671 23.0635 14.5247 23.2938C14.4959 23.4666 14.2367 23.6681 14.4095 24.0425C14.2367 23.8697 14.1792 23.8409 14.1216 23.7833C13.9776 23.8409 14.1216 24.0425 13.9488 24.1C13.7185 24.1288 13.6609 23.8985 13.5457 23.8121C13.3441 23.9273 13.1138 24.0137 12.9122 24.1288C12.7107 23.9561 12.8259 23.8409 12.941 23.7257C12.8547 23.6106 12.7971 23.4666 12.5955 23.4666C12.394 23.4666 12.5667 23.6969 12.394 23.7833C12.0197 23.3802 12.5379 22.9195 12.25 22.4876C12.4228 22.3724 12.5379 22.2861 12.6531 22.1709C12.5955 22.0845 12.5379 22.0557 12.4803 21.9981C12.5955 21.7678 12.7107 21.5086 12.8547 21.2783C12.8547 21.2783 12.9122 21.2783 12.941 21.2783C13.0274 21.3647 13.085 21.4223 13.085 21.5086Z" fill="#1E1E1E"/>
<path d="M13.085 21.5088C13.085 21.3936 13.0274 21.3361 12.941 21.3648C12.8834 20.789 13.2577 20.3859 13.5169 19.954C13.92 19.2341 14.4095 18.5431 14.8701 17.8521C15.2157 17.3338 15.6188 16.8443 15.9931 16.3548C16.5114 15.6638 17.0872 15.0591 17.5479 14.3393C17.8359 13.9362 18.2102 13.5906 18.5557 13.1875C19.0164 12.6405 19.4195 12.0358 19.9666 11.5751C20.2545 11.316 20.5424 11.0856 20.7152 10.7113C20.8016 10.5385 20.9455 10.3946 21.1759 10.337C21.2911 10.3082 21.3199 10.0491 21.4638 9.90508C22.7019 8.5518 23.9688 7.2273 25.2933 5.9316C26.0996 5.12539 26.9922 4.40555 27.7984 3.62813C28.4606 2.99468 29.1517 2.41881 29.8715 1.87174C30.1594 1.67018 30.361 1.32466 30.7641 1.23828C30.9081 1.38225 30.8793 1.52622 30.7353 1.5838C29.9579 2.07329 29.2668 2.67795 28.6622 3.36899C28.4606 3.59934 28.1439 3.68572 27.9423 3.91606C27.7696 4.11762 27.5968 4.34797 27.3089 4.43435C27.1361 4.49193 26.9346 4.69349 26.877 4.86625C26.7618 5.15418 26.5027 5.26935 26.3299 5.4997C26.1571 5.73005 25.9268 5.84522 25.7252 6.04677C25.4373 6.30591 25.2933 6.70902 24.8902 6.85299C24.8614 7.25609 24.4007 7.25609 24.2856 7.51524C24.1416 7.83196 23.8537 7.91834 23.6521 8.14869C23.4794 8.37904 23.3066 8.60938 23.0763 8.81094C22.8459 9.01249 22.6156 9.24284 22.414 9.47318C22.1837 9.70353 21.9533 9.90508 21.7518 10.1354C21.5502 10.3658 21.3774 10.6249 21.1759 10.8265C20.744 11.316 20.3985 11.8342 19.9378 12.2949C19.4195 12.7556 19.0164 13.3603 18.5845 13.9074C18.1526 14.4544 17.7495 15.0591 17.26 15.5486C16.8857 15.9229 16.7417 16.4412 16.3098 16.7291C16.281 17.1034 15.8779 17.2762 15.7339 17.5929C15.6188 17.8233 15.4172 18.14 15.1293 18.284C14.9853 18.3703 14.9853 18.7734 14.8414 18.831C14.5534 18.9174 14.6398 19.119 14.5534 19.2629C14.4958 19.3781 14.4382 19.5509 14.3519 19.6372C13.8912 20.1843 13.5744 20.8178 13.2865 21.48C13.2001 21.5088 13.1425 21.5088 13.085 21.5088Z" fill="#1E1E1E"/>
</svg>
